<?xml version="1.0" encoding="iso-8859-1"?>
<!-- Generator: Adobe Illustrator 19.0.0, SVG Export Plug-In . SVG Version: 6.00 Build 0)  -->
<svg version="1.1" id="Layer_1" xmlns="http://www.w3.org/2000/svg" xmlns:xlink="http://www.w3.org/1999/xlink" x="0px" y="0px"
	 viewBox="0 0 508 508" style="enable-background:new 0 0 508 508;" xml:space="preserve">
<circle style="fill:#90DFAA;" cx="254" cy="254" r="254"/>
<path style="fill:#2C9984;" d="M4,298c20.8,119.2,124.8,210,250,210s229.2-90.8,250-210H4z"/>
<path style="fill:#CED5E0;" d="M125.2,418.4h257.6c5.6,0,10.8-2.8,15.2-8l0.8-1.2c1.6-1.6,0-3.2-3.2-3.2H112.4
	c-3.2,0-4.4,1.6-3.2,3.2l0.8,1.2C114.4,415.6,119.6,418.4,125.2,418.4z"/>
<path style="fill:#E6E9EE;" d="M395.6,409.2H112.4c-3.2,0-4.4-1.2-3.2-2.8l40.8-44c0.8-0.8,3.2-1.6,5.2-1.6h197.2
	c2.4,0,4.8,0.8,5.2,1.6L398,406C400,407.6,398.8,409.2,395.6,409.2z"/>
<g>
	<polygon style="fill:#CED5E0;" points="166,371.6 152.8,371.6 156.8,366.4 169.6,366.4 	"/>
	<polygon style="fill:#CED5E0;" points="189.6,371.6 176.4,371.6 179.6,366.4 192.4,366.4 	"/>
	<polygon style="fill:#CED5E0;" points="213.2,371.6 200,371.6 202.4,366.4 214.8,366.4 	"/>
	<polygon style="fill:#CED5E0;" points="236.8,371.6 223.6,371.6 224.8,366.4 237.6,366.4 	"/>
	<polygon style="fill:#CED5E0;" points="260.4,371.6 247.6,371.6 247.6,366.4 260.4,366.4 	"/>
	<polygon style="fill:#CED5E0;" points="284.4,371.6 271.2,371.6 270.4,366.4 283.2,366.4 	"/>
	<polygon style="fill:#CED5E0;" points="308,371.6 294.8,371.6 293.2,366.4 305.6,366.4 	"/>
	<polygon style="fill:#CED5E0;" points="331.6,371.6 318.4,371.6 315.6,366.4 328.4,366.4 	"/>
	<polygon style="fill:#CED5E0;" points="355.2,371.6 342,371.6 338.4,366.4 351.2,366.4 	"/>
	<polygon style="fill:#CED5E0;" points="159.6,380 145.6,380 150.4,374.4 163.6,374.4 	"/>
	<polygon style="fill:#CED5E0;" points="185.2,380 170.8,380 174.4,374.4 188,374.4 	"/>
	<polygon style="fill:#CED5E0;" points="210.4,380 196.4,380 198.8,374.4 212.4,374.4 	"/>
	<polygon style="fill:#CED5E0;" points="235.6,380 221.6,380 222.8,374.4 236.4,374.4 	"/>
	<polygon style="fill:#CED5E0;" points="261.2,380 246.8,380 247.2,374.4 260.8,374.4 	"/>
	<polygon style="fill:#CED5E0;" points="286.4,380 272.4,380 271.6,374.4 285.2,374.4 	"/>
	<polygon style="fill:#CED5E0;" points="311.6,380 297.6,380 295.6,374.4 309.2,374.4 	"/>
	<polygon style="fill:#CED5E0;" points="337.2,380 322.8,380 320,374.4 333.6,374.4 	"/>
	<polygon style="fill:#CED5E0;" points="362.4,380 348.4,380 344.4,374.4 357.6,374.4 	"/>
	<polygon style="fill:#CED5E0;" points="152.4,390 137.2,390 142.8,383.6 157.2,383.6 	"/>
	<polygon style="fill:#CED5E0;" points="179.6,390 164.4,390 168.8,383.6 183.2,383.6 	"/>
	<polygon style="fill:#CED5E0;" points="207.2,390 192,390 194.8,383.6 209.2,383.6 	"/>
	<polygon style="fill:#CED5E0;" points="234.4,390 219.2,390 220.8,383.6 235.2,383.6 	"/>
	<polygon style="fill:#CED5E0;" points="288.8,390 246.4,390 246.8,383.6 287.2,383.6 	"/>
	<polygon style="fill:#CED5E0;" points="316,390 300.8,390 298.8,383.6 313.2,383.6 	"/>
	<polygon style="fill:#CED5E0;" points="343.6,390 328.4,390 324.8,383.6 339.2,383.6 	"/>
	<polygon style="fill:#CED5E0;" points="370.8,390 355.6,390 350.8,383.6 365.2,383.6 	"/>
	<polygon style="fill:#CED5E0;" points="144,401.6 127.6,401.6 134,394 149.6,394 	"/>
	<polygon style="fill:#CED5E0;" points="232.8,401.6 157.2,401.6 162,394 233.6,394 	"/>
	<polygon style="fill:#CED5E0;" points="262.4,401.6 245.6,401.6 246,394 262,394 	"/>
	<polygon style="fill:#CED5E0;" points="291.6,401.6 275.2,401.6 274.4,394 290,394 	"/>
	<polygon style="fill:#CED5E0;" points="321.2,401.6 304.8,401.6 302.4,394 318,394 	"/>
	<polygon style="fill:#CED5E0;" points="350.8,401.6 334.4,401.6 330.4,394 346,394 	"/>
	<polygon style="fill:#CED5E0;" points="380.4,401.6 364,401.6 358.4,394 374,394 	"/>
</g>
<path style="fill:#324A5E;" d="M306.4,348c-13.2-19.6-18-50.4-18-50.4h-68.8c0,0-5.2,30.8-18,50.4H306.4z"/>
<path style="fill:#2B3B4E;" d="M295.2,323.6c-4.8-14-6.8-26-6.8-26h-68.8c0,0-2,12-6.8,26H295.2z"/>
<path style="fill:#324A5E;" d="M388,310H120c-4.8,0-8.8-4-8.8-8.8V106c0-4.8,4-8.8,8.8-8.8h268c4.8,0,8.8,4,8.8,8.8v195.2
	C396.8,306,392.8,310,388,310z"/>
<rect x="130.4" y="115.6" style="fill:#FFFFFF;" width="247.6" height="158"/>
<polyline style="fill:none;stroke:#324A5E;stroke-width:2.074;stroke-linecap:round;stroke-linejoin:round;stroke-miterlimit:10;" points="
	330.4,221.2 277.2,168 223.6,221.2 177.6,175.2 "/>
<ellipse style="fill:#ACB3BA;" cx="254" cy="291.6" rx="9.2" ry="8.8"/>
<circle style="fill:#E6E9EE;" cx="177.6" cy="175.2" r="21.2"/>
<circle style="fill:#FF7058;" cx="177.6" cy="175.2" r="14.4"/>
<circle style="fill:#E6E9EE;" cx="223.6" cy="221.2" r="21.2"/>
<circle style="fill:#FF7058;" cx="223.6" cy="221.2" r="14.4"/>
<circle style="fill:#E6E9EE;" cx="277.2" cy="168" r="21.2"/>
<circle style="fill:#FF7058;" cx="277.2" cy="168" r="14.4"/>
<circle style="fill:#E6E9EE;" cx="330.4" cy="221.2" r="21.2"/>
<circle style="fill:#FF7058;" cx="330.4" cy="221.2" r="14.4"/>
<g>
</g>
<g>
</g>
<g>
</g>
<g>
</g>
<g>
</g>
<g>
</g>
<g>
</g>
<g>
</g>
<g>
</g>
<g>
</g>
<g>
</g>
<g>
</g>
<g>
</g>
<g>
</g>
<g>
</g>
</svg>
