<?xml version="1.0" encoding="iso-8859-1"?>
<!-- Generator: Adobe Illustrator 19.0.0, SVG Export Plug-In . SVG Version: 6.00 Build 0)  -->
<svg version="1.1" id="Layer_1" xmlns="http://www.w3.org/2000/svg" xmlns:xlink="http://www.w3.org/1999/xlink" x="0px" y="0px"
	 viewBox="0 0 508 508" style="enable-background:new 0 0 508 508;" xml:space="preserve">
<circle style="fill:#FD8469;" cx="254" cy="254" r="254"/>
<polygon style="fill:#2B3B4E;" points="254,154.4 115.2,203.6 254,252.4 "/>
<polygon style="fill:#324A5E;" points="254,154.4 254,252.4 392.8,203.6 "/>
<path style="fill:#FFFFFF;" d="M360,166l-16-3.2c-2.4-12-7.2-23.2-13.6-32.8l9.2-13.6c2-3.2,1.6-7.6-0.8-10l-10-10
	c-2.8-2.8-6.8-3.2-10-0.8l-13.6,9.2c-10-6.4-20.8-11.2-32.8-13.6l-3.2-16c-0.8-3.6-4-6.4-8-6.4h-14c-4,0-7.2,2.8-8,6.4l-3.2,16
	c-12,2.4-23.2,7.2-32.8,13.6l-13.6-9.2c-3.2-2-7.6-1.6-10,0.8l-10,9.6c-2.8,2.8-3.2,6.8-0.8,10l9.2,13.6
	c-6.4,10-11.2,20.8-13.6,32.8l-16,3.2c-3.6,0.8-6.4,4-6.4,8v14c0,4,2.8,7.2,6.4,8l16,3.2c2.4,12,7.2,23.2,13.6,32.8l-9.2,13.6
	c-2,3.2-1.6,7.6,0.8,10l10,10c2.8,2.8,6.8,3.2,10,0.8l13.6-9.2c10,6.4,20.8,11.2,32.8,13.6l3.2,16c0.8,3.6,4,6.4,8,6.4h14
	c4,0,7.2-2.8,8-6.4l3.2-16c12-2.4,23.2-7.2,32.8-13.6l13.6,9.2c3.2,2,7.6,1.6,10-0.8l10-10c2.8-2.8,3.2-6.8,0.8-10l-9.2-13.6
	c6.4-10,11.2-20.8,13.6-32.8l16-3.2c3.6-0.8,6.4-4,6.4-8v-14C366.4,170,364,166.8,360,166z M254,236.4c-30.8,0-55.6-24.8-55.6-55.6
	s24.8-55.6,55.6-55.6s55.6,24.8,55.6,55.6S284.8,236.4,254,236.4z"/>
<polygon style="fill:#F9B54C;" points="254,439.6 115.2,391.2 115.2,203.6 254,252.4 "/>
<polygon style="fill:#FFD05B;" points="254,439.6 392.8,391.2 392.8,203.6 254,252.4 "/>
<circle style="fill:#FFFFFF;" cx="254" cy="180.8" r="36"/>
<g>
</g>
<g>
</g>
<g>
</g>
<g>
</g>
<g>
</g>
<g>
</g>
<g>
</g>
<g>
</g>
<g>
</g>
<g>
</g>
<g>
</g>
<g>
</g>
<g>
</g>
<g>
</g>
<g>
</g>
</svg>
