<?xml version="1.0" encoding="iso-8859-1"?>
<!-- Generator: Adobe Illustrator 19.0.0, SVG Export Plug-In . SVG Version: 6.00 Build 0)  -->
<svg version="1.1" id="Layer_1" xmlns="http://www.w3.org/2000/svg" xmlns:xlink="http://www.w3.org/1999/xlink" x="0px" y="0px"
	 viewBox="0 0 505 505" style="enable-background:new 0 0 505 505;" xml:space="preserve">
<circle style="fill:#324A5E;" cx="252.5" cy="252.5" r="252.5"/>
<path style="fill:#CED5E0;" d="M370.8,241.8c-11.9-21.3-26-39.1-31.5-44.4c-3.2-3.1-6.4-6.2-9.7-9.3c-0.9-0.8-1.9-1.8-3.1-2.8
	c-2-1.8-4.6-3.7-7.5-5.7c-0.3-0.2-0.6-0.4-0.9-0.6c-0.9-0.6-1.9-1.2-2.9-1.8c-0.3-0.2-0.6-0.3-0.9-0.5s-0.6-0.3-0.9-0.5
	s-0.6-0.3-0.9-0.5c-1.3-0.7-2.7-1.4-4.1-2.1c-0.3-0.2-0.6-0.3-1-0.5c-2.8-1.3-5.9-2.6-9.2-3.7c-4.9-1.7-10.3-3.1-16.3-4.1
	c-8.6-1.4-18.4-2-29.5-1.1c-11.1-0.9-20.9-0.3-29.5,1.1c-6,1-11.4,2.4-16.3,4.1c-3.3,1.1-6.4,2.4-9.2,3.7c-0.3,0.1-0.6,0.3-1,0.5
	c-1.4,0.7-2.8,1.4-4.1,2.1c-0.3,0.2-0.6,0.3-0.9,0.5c-0.3,0.2-0.6,0.3-0.9,0.5c-0.3,0.2-0.6,0.3-0.9,0.5c-1,0.6-2,1.2-2.9,1.8
	c-0.3,0.2-0.6,0.4-0.9,0.6c-3,2-5.5,4-7.5,5.7c-1.2,1-2.2,2-3.1,2.8c-3.2,3.1-6.4,6.2-9.7,9.3c-5.5,5.3-19.6,23.1-31.5,44.4
	c-12.1,21.7-22,47-18.4,66.6c2.9,15.1,19.1,106.8,136.9,106.8s134-91.7,136.8-106.8C392.8,288.8,383,263.5,370.8,241.8z"/>
<g>
	<path style="fill:#ACB3BA;" d="M370.8,241.8c-11.9-21.3-26-39.1-31.5-44.4c-3.2-3.1-6.4-6.2-9.7-9.3c-0.9-0.8-1.9-1.8-3.1-2.8
		c-5.7-4.9-15-11.3-28.3-15.9c11.6-20.7,42.8-72.9,64.3-79c1.3-0.4,2.5-0.6,3.7-0.6c0.1,0,0.1,0,0.1,0l0,0c5,0,9.2,3,12.4,10.2
		C378.8,100,394.5,152.1,370.8,241.8z"/>
	<path style="fill:#ACB3BA;" d="M134.2,241.8c11.9-21.3,26-39.1,31.5-44.4c3.2-3.1,6.4-6.2,9.7-9.3c0.9-0.8,1.9-1.8,3.1-2.8
		c5.7-4.9,15-11.3,28.3-15.9c-11.6-20.7-42.8-72.9-64.3-79c-1.3-0.4-2.5-0.6-3.7-0.6c-0.1,0-0.1,0-0.1,0l0,0c-5,0-9.2,3-12.4,10.2
		C126.2,100,110.5,152.1,134.2,241.8z"/>
</g>
<g>
	<path style="fill:#CED5E0;" d="M362.6,90.4c-21.5,6.1-52.7,58.4-64.3,79c-4.9-1.7-10.3-3.1-16.3-4.1
		C323.5,104.7,352.6,92.7,362.6,90.4z"/>
	<path style="fill:#CED5E0;" d="M142.4,90.4c21.5,6.1,52.7,58.4,64.3,79c4.9-1.7,10.3-3.1,16.3-4.1
		C181.5,104.7,152.4,92.7,142.4,90.4z"/>
</g>
<ellipse style="fill:#324A5E;" cx="252.5" cy="372.6" rx="33.1" ry="16.1"/>
<path style="fill:#ACB3BA;" d="M311.7,337.3c-7.8-15.4-20.5-27.3-34.2-36.8c-7.7-5.3-16.1-10.1-25-11.7c-9,1.6-17.3,6.4-25,11.7
	c-13.7,9.5-26.4,21.3-34.2,36.8c-2.8,5.6-5,11.9-4.6,18.3c0.5,6.5,5.7,25.9,39.9,25.9c7.6,0,15.6-2.2,20.6-8.3
	c1.1-1.4,2.2-2.9,3.3-4.3c1.1,1.4,2.2,3,3.3,4.3c5,6.1,13,8.3,20.6,8.3c34.2,0,39.4-19.5,39.9-25.9
	C316.8,349.2,314.6,342.9,311.7,337.3z"/>
<path style="fill:#324A5E;" d="M271.3,336.5c-1.9-0.6-3.3-2.4-4.2-4.2c-0.3-0.5-0.5-1-1-1.3c-0.4-0.3-0.9-0.4-1.3-0.5
	c-4-0.6-7.7,2.3-11.7,2.1c-0.2,0-0.4,0-0.6,0c-0.2,0-0.4,0-0.6,0c-4,0.1-7.8-2.7-11.7-2.1c-0.5,0.1-0.9,0.2-1.3,0.5
	c-0.4,0.3-0.7,0.9-1,1.3c-1,1.8-2.3,3.6-4.2,4.2c-1.7,0.6-4-0.3-4.6-1.9c0.6,2.1,2.1,3.9,4.1,4.9c2.1,1,4.8,1,6.9-0.1
	c0.6-0.3,1.2-0.7,1.8-0.8c1.1-0.2,2.3,0.5,2.8,1.5s0.5,2.3,0.2,3.4c-0.3,0.9-0.7,1.6-0.9,2.5c-0.3,1.3,0.1,2.6,0.6,3.8
	c1.5,3.3,4.5,5.7,7.9,6.9c3.4-1.2,6.4-3.6,7.9-6.9c0.5-1.2,0.9-2.5,0.6-3.8c-0.2-0.9-0.6-1.7-0.9-2.5c-0.3-1.1-0.4-2.3,0.2-3.4
	c0.5-1,1.7-1.7,2.8-1.5c0.7,0.1,1.2,0.5,1.8,0.8c2.1,1.1,4.7,1.2,6.9,0.1c2-0.9,3.5-2.8,4.1-4.9C275.3,336.2,273,337,271.3,336.5z"
	/>
<g>
	<path style="fill:#2B3B4E;" d="M287.6,342.7c0,0,0.4,0.3,1.2,0.7c0.8,0.4,2.1,1,3.7,1.7s3.6,1.4,5.9,2.1s4.9,1.3,7.8,2
		c0.7,0.1,1.5,0.3,2.2,0.4c0.8,0.1,1.5,0.3,2.3,0.4s1.6,0.3,2.4,0.4s1.6,0.2,2.5,0.3c3.4,0.4,6.9,0.6,10.6,0.7s7.5,0.1,11.3,0
		c1.9-0.1,3.9-0.2,5.8-0.3c2-0.2,3.9-0.3,5.9-0.5s3.9-0.4,5.9-0.7c1.9-0.3,3.9-0.5,5.8-0.8s3.8-0.6,5.7-0.9c1.9-0.3,3.7-0.7,5.5-1
		s3.6-0.7,5.3-1.1c0.9-0.2,1.7-0.4,2.6-0.5c0.9-0.2,1.7-0.4,2.5-0.6c1.7-0.4,3.3-0.7,4.8-1.1c1.6-0.4,3.1-0.7,4.5-1.1
		c2.9-0.7,5.5-1.4,7.9-2c1.2-0.3,2.3-0.6,3.3-0.9s1.9-0.5,2.8-0.8c1.7-0.5,3-0.8,3.9-1s1.4-0.4,1.4-0.4s-0.5,0.2-1.3,0.6
		c-0.9,0.4-2.1,0.9-3.7,1.6c-0.8,0.3-1.7,0.7-2.7,1.1s-2,0.8-3.2,1.2c-2.3,0.9-4.8,1.9-7.7,2.8c-1.4,0.5-2.9,1-4.4,1.5
		s-3.1,1-4.8,1.5c-0.8,0.2-1.7,0.5-2.5,0.7c-0.9,0.2-1.7,0.5-2.6,0.7s-1.8,0.5-2.7,0.7c-0.9,0.2-1.8,0.5-2.7,0.7
		c-1.8,0.4-3.7,0.8-5.6,1.2c-1.9,0.4-3.8,0.7-5.8,1.1c-1.9,0.3-3.9,0.6-5.9,0.9s-4,0.5-6,0.7s-4,0.3-6,0.5c-2,0.1-4,0.2-6,0.2
		s-4,0.1-5.9,0c-1,0-1.9-0.1-2.9-0.1s-1.9-0.1-2.9-0.2c-3.8-0.3-7.4-0.8-10.8-1.4s-6.6-1.4-9.5-2.3s-5.5-1.8-7.8-2.8s-4.2-2-5.7-2.9
		s-2.7-1.7-3.4-2.2C288,343,287.6,342.7,287.6,342.7z"/>
	<path style="fill:#2B3B4E;" d="M293,353.4c0,0,0.4,0.3,1.1,0.8s1.8,1.2,3.2,2c1.4,0.8,3.2,1.7,5.2,2.6c2.1,0.9,4.4,1.8,7.1,2.8
		c0.7,0.2,1.3,0.4,2,0.7c0.7,0.2,1.4,0.4,2.1,0.6s1.4,0.4,2.2,0.6c0.7,0.2,1.5,0.4,2.3,0.6c3.1,0.7,6.4,1.4,9.8,2s7,1,10.6,1.4
		c1.8,0.2,3.6,0.3,5.5,0.4c1.8,0.1,3.7,0.2,5.5,0.2c1.9,0,3.7,0.1,5.5,0.1s3.7,0,5.5,0s3.6-0.1,5.4-0.1c1.8-0.1,3.6-0.2,5.3-0.3
		c1.7-0.1,3.4-0.3,5.1-0.3c0.8-0.1,1.7-0.1,2.5-0.2s1.6-0.2,2.4-0.2c1.6-0.1,3.2-0.3,4.7-0.4c1.5-0.2,3-0.3,4.3-0.5
		c2.8-0.3,5.3-0.6,7.6-0.9c1.1-0.1,2.2-0.3,3.2-0.4s1.9-0.3,2.7-0.4c1.6-0.2,2.9-0.4,3.8-0.5s1.3-0.2,1.3-0.2s-0.4,0.1-1.3,0.4
		c-0.8,0.2-2.1,0.6-3.7,1.1c-0.8,0.2-1.7,0.5-2.6,0.7c-1,0.3-2,0.5-3.1,0.8c-2.2,0.5-4.7,1.2-7.5,1.7c-1.4,0.3-2.8,0.6-4.3,0.9
		s-3.1,0.5-4.7,0.8c-0.8,0.1-1.6,0.3-2.4,0.4s-1.7,0.2-2.5,0.3c-0.8,0.1-1.7,0.2-2.6,0.3c-0.9,0.1-1.7,0.2-2.6,0.3
		c-1.8,0.2-3.6,0.3-5.4,0.5c-1.8,0.1-3.7,0.2-5.5,0.3c-1.9,0.1-3.7,0.1-5.6,0.1s-3.8,0-5.7-0.1c-1.9-0.1-3.8-0.2-5.7-0.3
		c-1.9-0.1-3.8-0.3-5.6-0.5c-1.9-0.3-3.7-0.4-5.5-0.8c-0.9-0.2-1.8-0.3-2.7-0.5c-0.9-0.1-1.8-0.4-2.6-0.5c-3.5-0.7-6.8-1.6-10-2.6
		c-3.1-1-6-2.2-8.6-3.3c-2.6-1.2-4.9-2.4-6.9-3.6s-3.6-2.4-4.9-3.4s-2.3-1.9-2.9-2.5C293.3,353.8,293,353.4,293,353.4z"/>
	<path style="fill:#2B3B4E;" d="M286.1,358.8c0,0,0.3,0.4,0.9,1s1.6,1.5,2.8,2.5c1.3,1,2.8,2.2,4.7,3.5c1.9,1.3,4.1,2.6,6.5,3.9
		c0.6,0.3,1.2,0.7,1.9,1c0.6,0.3,1.3,0.7,2,1s1.3,0.7,2.1,1c0.7,0.3,1.4,0.6,2.1,1c2.9,1.3,6,2.5,9.3,3.6c3.3,1.2,6.7,2.2,10.2,3.1
		c1.8,0.5,3.5,0.9,5.3,1.3s3.6,0.8,5.4,1.2c1.8,0.3,3.6,0.7,5.4,1s3.6,0.6,5.4,0.9s3.6,0.5,5.4,0.8c1.8,0.2,3.5,0.4,5.3,0.6
		c1.7,0.2,3.4,0.3,5.1,0.5c0.8,0.1,1.7,0.2,2.5,0.3c0.8,0.1,1.6,0.1,2.4,0.2c1.6,0.1,3.2,0.3,4.7,0.4s3,0.2,4.4,0.3
		c2.8,0.2,5.4,0.3,7.6,0.4c1.1,0.1,2.2,0.1,3.2,0.2c1,0,1.9,0.1,2.7,0.1c1.6,0.1,2.9,0.1,3.8,0.2s1.4,0.1,1.4,0.1s-0.5,0.1-1.3,0.2
		c-0.9,0.1-2.2,0.3-3.8,0.4c-0.8,0.1-1.7,0.2-2.7,0.3c-1,0.1-2.1,0.2-3.2,0.2c-2.3,0.2-4.9,0.4-7.7,0.4c-1.4,0-2.9,0.1-4.4,0.1
		s-3.1,0-4.7,0c-0.8,0-1.6,0-2.5,0c-0.8,0-1.7-0.1-2.5-0.1c-0.9,0-1.7-0.1-2.6-0.1s-1.7-0.1-2.6-0.2c-1.8-0.1-3.6-0.3-5.4-0.4
		c-1.8-0.2-3.7-0.4-5.5-0.6c-1.9-0.2-3.7-0.5-5.6-0.8s-3.7-0.7-5.6-1c-1.9-0.4-3.7-0.8-5.6-1.3c-1.8-0.5-3.7-1-5.5-1.5
		c-1.8-0.6-3.6-1.1-5.3-1.7c-0.9-0.3-1.7-0.6-2.6-0.9s-1.7-0.7-2.5-1c-3.3-1.3-6.5-2.8-9.4-4.3s-5.5-3.1-7.9-4.7s-4.4-3.2-6.2-4.7
		c-1.8-1.5-3.2-3-4.3-4.2c-1.1-1.2-1.9-2.3-2.4-3C286.3,359.3,286.1,358.8,286.1,358.8z"/>
	<path style="fill:#2B3B4E;" d="M217.4,342.7c0,0-0.4,0.3-1.1,0.9c-0.8,0.6-1.9,1.4-3.4,2.2c-1.5,0.9-3.4,1.9-5.7,2.9
		s-4.9,2-7.8,2.8c-2.9,0.8-6.1,1.7-9.5,2.3c-3.4,0.6-7.1,1.1-10.8,1.4c-0.9,0.1-1.9,0.2-2.9,0.2s-1.9,0.1-2.9,0.1
		c-1.9,0.1-3.9,0-5.9,0c-2-0.1-4-0.1-6-0.2c-2-0.2-4-0.3-6-0.5s-4-0.4-6-0.7c-2-0.3-4-0.6-5.9-0.9c-1.9-0.4-3.9-0.7-5.8-1.1
		c-1.9-0.4-3.8-0.8-5.6-1.2c-0.9-0.2-1.8-0.4-2.7-0.7c-0.9-0.2-1.8-0.5-2.7-0.7s-1.7-0.5-2.6-0.7c-0.8-0.3-1.7-0.5-2.5-0.7
		c-1.6-0.5-3.3-1-4.8-1.5s-3-1-4.4-1.5c-2.9-0.9-5.4-2-7.7-2.8c-1.1-0.4-2.2-0.8-3.2-1.2c-1-0.4-1.9-0.8-2.7-1.1
		c-1.6-0.7-2.9-1.3-3.7-1.6c-0.9-0.4-1.3-0.6-1.3-0.6s0.5,0.1,1.4,0.4c0.9,0.2,2.2,0.6,3.9,1c0.8,0.2,1.8,0.5,2.8,0.8
		s2.1,0.5,3.3,0.9c2.3,0.6,5,1.3,7.9,2c1.4,0.4,2.9,0.7,4.5,1.1s3.2,0.7,4.8,1.1c0.8,0.2,1.7,0.4,2.5,0.6c0.9,0.2,1.7,0.4,2.6,0.5
		c1.8,0.3,3.5,0.8,5.3,1.1c1.8,0.3,3.7,0.7,5.5,1c1.9,0.3,3.8,0.6,5.7,0.9s3.9,0.5,5.8,0.8c1.9,0.3,3.9,0.4,5.9,0.7
		c2,0.2,3.9,0.3,5.9,0.5c2,0.1,3.9,0.2,5.8,0.3c3.9,0.1,7.7,0.2,11.3,0c3.7-0.1,7.2-0.4,10.6-0.7c0.8-0.1,1.7-0.2,2.5-0.3
		c0.8-0.1,1.6-0.2,2.4-0.4c0.8-0.1,1.6-0.2,2.3-0.4c0.8-0.1,1.5-0.3,2.2-0.4c2.9-0.6,5.5-1.3,7.8-2s4.3-1.4,5.9-2.1
		c1.6-0.7,2.8-1.2,3.7-1.7C216.9,343,217.4,342.7,217.4,342.7z"/>
	<path style="fill:#2B3B4E;" d="M212,353.4c0,0-0.3,0.4-0.9,1c-0.6,0.6-1.6,1.5-2.9,2.5c-1.3,1-3,2.2-4.9,3.4
		c-2,1.2-4.3,2.4-6.9,3.6c-2.6,1.2-5.5,2.3-8.6,3.3s-6.5,1.9-10,2.6c-0.9,0.2-1.8,0.4-2.6,0.5c-0.9,0.2-1.8,0.3-2.7,0.5
		c-1.8,0.3-3.7,0.5-5.5,0.8c-1.9,0.2-3.7,0.4-5.6,0.5c-1.9,0.1-3.8,0.2-5.7,0.3c-1.9,0-3.8,0.1-5.7,0.1s-3.8,0-5.6-0.1
		c-1.9-0.1-3.7-0.2-5.5-0.3c-1.8-0.2-3.6-0.3-5.4-0.5c-0.9-0.1-1.8-0.2-2.6-0.3c-0.9-0.1-1.7-0.2-2.6-0.3c-0.8-0.1-1.7-0.2-2.5-0.3
		c-0.8-0.1-1.6-0.3-2.4-0.4c-1.6-0.3-3.2-0.5-4.7-0.8s-2.9-0.6-4.3-0.9c-2.8-0.5-5.3-1.2-7.5-1.7c-1.1-0.3-2.2-0.5-3.1-0.8
		c-1-0.3-1.8-0.5-2.6-0.7c-1.6-0.4-2.8-0.8-3.7-1.1c-0.8-0.3-1.3-0.4-1.3-0.4s0.5,0.1,1.3,0.2c0.9,0.1,2.2,0.2,3.8,0.5
		c0.8,0.1,1.7,0.2,2.7,0.4c1,0.1,2,0.2,3.2,0.4c2.3,0.3,4.8,0.6,7.6,0.9c1.4,0.1,2.8,0.3,4.3,0.5c1.5,0.1,3.1,0.3,4.7,0.4
		c0.8,0.1,1.6,0.1,2.4,0.2c0.8,0.1,1.6,0.1,2.5,0.2c1.7,0.1,3.4,0.3,5.1,0.3c1.7,0.1,3.5,0.2,5.3,0.3c1.8,0,3.6,0.1,5.4,0.1
		c1.8,0,3.7,0,5.5,0s3.7-0.1,5.5-0.1c1.9,0,3.7-0.2,5.5-0.2c1.8-0.1,3.7-0.3,5.5-0.4c3.6-0.4,7.2-0.8,10.6-1.4
		c3.4-0.5,6.7-1.2,9.8-2c0.8-0.2,1.5-0.4,2.3-0.6c0.7-0.2,1.5-0.4,2.2-0.6s1.4-0.4,2.1-0.6c0.7-0.2,1.4-0.4,2-0.7
		c2.6-0.9,5-1.8,7.1-2.8c2.1-0.9,3.8-1.8,5.2-2.6c1.4-0.8,2.5-1.5,3.2-2C211.7,353.7,212,353.4,212,353.4z"/>
	<path style="fill:#2B3B4E;" d="M218.9,358.8c0,0-0.2,0.4-0.7,1.1s-1.3,1.8-2.4,3c-1.1,1.2-2.5,2.7-4.3,4.2s-3.8,3.1-6.2,4.7
		s-5,3.2-7.9,4.7s-6,3-9.4,4.3c-0.8,0.3-1.7,0.7-2.5,1c-0.9,0.3-1.7,0.6-2.6,0.9c-1.7,0.6-3.5,1.1-5.3,1.7c-1.8,0.5-3.6,1-5.5,1.5
		c-1.8,0.4-3.7,0.9-5.6,1.3c-1.9,0.3-3.7,0.7-5.6,1c-1.9,0.3-3.7,0.6-5.6,0.8c-1.9,0.2-3.7,0.4-5.5,0.6c-1.8,0.1-3.6,0.3-5.4,0.4
		c-0.9,0.1-1.8,0.1-2.6,0.2c-0.9,0-1.7,0.1-2.6,0.1c-0.9,0-1.7,0.1-2.5,0.1s-1.7,0-2.5,0c-1.6,0-3.2,0-4.7,0s-3-0.1-4.4-0.1
		c-2.8,0-5.4-0.3-7.7-0.4c-1.1-0.1-2.2-0.1-3.2-0.2s-1.9-0.2-2.7-0.3c-1.6-0.2-2.9-0.3-3.8-0.4s-1.3-0.2-1.3-0.2s0.5,0,1.4-0.1
		c0.9,0,2.2-0.1,3.8-0.2c0.8,0,1.7-0.1,2.7-0.1c1-0.1,2.1-0.1,3.2-0.2c2.3-0.1,4.9-0.2,7.6-0.4c1.4-0.1,2.9-0.2,4.4-0.3
		c1.5-0.1,3.1-0.3,4.7-0.4c0.8-0.1,1.6-0.1,2.4-0.2c0.8-0.1,1.6-0.2,2.5-0.3c1.7-0.2,3.4-0.3,5.1-0.5c1.7-0.2,3.5-0.4,5.3-0.6
		c1.8-0.3,3.6-0.5,5.4-0.8c1.8-0.3,3.6-0.6,5.4-0.9c1.8-0.3,3.6-0.7,5.4-1c1.8-0.4,3.6-0.8,5.4-1.2c1.8-0.5,3.6-0.9,5.3-1.3
		c3.5-1,6.9-2,10.2-3.1s6.4-2.4,9.3-3.6c0.7-0.3,1.4-0.6,2.1-1c0.7-0.3,1.4-0.7,2.1-1c0.7-0.3,1.3-0.6,2-1c0.6-0.3,1.3-0.7,1.9-1
		c2.4-1.3,4.6-2.7,6.5-3.9c1.9-1.3,3.5-2.5,4.7-3.5c1.3-1,2.2-1.9,2.8-2.5C218.6,359.2,218.9,358.8,218.9,358.8z"/>
	<path style="fill:#2B3B4E;" d="M170.9,262.7c0,0,19.2-15.9,38.8-6c19.7,9.8,16.2,49.1,16.2,49.1l-2.2-15.5c0,0-4.1,14.3-5.7,15.5
		l1.3-13c0,0-11.1,9.8-30.4,3.5s-15.6-28.9-13-33.6H170.9z"/>
</g>
<ellipse transform="matrix(0.4213 -0.9069 0.9069 0.4213 -135.9355 338.9158)" style="fill:#FFD05B;" cx="197.604" cy="275.976" rx="18.7" ry="19.7"/>
<ellipse style="fill:#2B3B4E;" cx="197.6" cy="276" rx="8" ry="13.2"/>
<circle style="fill:#FFFFFF;" cx="201.3" cy="272.3" r="3.7"/>
<path style="fill:#2B3B4E;" d="M334.1,262.7c0,0-19.2-15.9-38.8-6c-19.7,9.8-16.2,49.1-16.2,49.1l2.2-15.5c0,0,4.1,14.3,5.7,15.5
	l-1.3-13c0,0,11.1,9.8,30.4,3.5s15.6-28.9,13-33.6H334.1z"/>
<ellipse transform="matrix(0.4213 0.9069 -0.9069 0.4213 428.1141 -119.047)" style="fill:#FFD05B;" cx="307.341" cy="275.944" rx="18.7" ry="19.7"/>
<ellipse style="fill:#2B3B4E;" cx="307.4" cy="276" rx="8" ry="13.2"/>
<circle style="fill:#FFFFFF;" cx="303.7" cy="272.3" r="3.7"/>
<g>
</g>
<g>
</g>
<g>
</g>
<g>
</g>
<g>
</g>
<g>
</g>
<g>
</g>
<g>
</g>
<g>
</g>
<g>
</g>
<g>
</g>
<g>
</g>
<g>
</g>
<g>
</g>
<g>
</g>
</svg>
