<?xml version="1.0" encoding="iso-8859-1"?>
<!-- Generator: Adobe Illustrator 19.0.0, SVG Export Plug-In . SVG Version: 6.00 Build 0)  -->
<svg version="1.1" id="Layer_1" xmlns="http://www.w3.org/2000/svg" xmlns:xlink="http://www.w3.org/1999/xlink" x="0px" y="0px"
	 viewBox="0 0 508 508" style="enable-background:new 0 0 508 508;" xml:space="preserve">
<circle style="fill:#324A5E;" cx="254" cy="254" r="254"/>
<path style="fill:#FFFFFF;" d="M371.6,86H136.4c-9.2,0-16.8,7.6-16.8,16.8v302.4c0,9.2,7.6,16.8,16.8,16.8h234.8
	c9.2,0,16.8-7.6,16.8-16.8V102.8C388.4,93.2,380.8,86,371.6,86z"/>
<path style="fill:#FF7058;" d="M371.6,86H136.4c-9.2,0-16.8,7.6-16.8,16.8v36.4h268.8v-36.4C388.4,93.2,380.8,86,371.6,86z"/>
<g>
	<circle style="fill:#FFFFFF;" cx="358.8" cy="112.4" r="12"/>
	<circle style="fill:#FFFFFF;" cx="326.4" cy="112.4" r="12"/>
	<circle style="fill:#FFFFFF;" cx="294" cy="112.4" r="12"/>
</g>
<path style="fill:#E6E9EE;" d="M254.4,195.2h-93.6c-6.4,0-12-5.2-12-12l0,0c0-6.4,5.2-12,12-12h93.6c6.4,0,12,5.2,12,12l0,0
	C266,190,260.8,195.2,254.4,195.2z"/>
<circle style="fill:#54C0EB;" cx="295.6" cy="185.2" r="13.6"/>
<g>
	<path style="fill:#E6E9EE;" d="M298.4,304.4h-93.6c-6.4,0-12-5.2-12-12l0,0c0-6.4,5.2-12,12-12h93.6c6.4,0,12,5.2,12,12l0,0
		C310.4,299.2,305.2,304.4,298.4,304.4z"/>
	<path style="fill:#E6E9EE;" d="M300.8,367.2h-93.6c-6.4,0-12-5.2-12-12l0,0c0-6.4,5.2-12,12-12h93.6c6.4,0,12,5.2,12,12l0,0
		C312.8,361.6,307.2,367.2,300.8,367.2z"/>
	<path style="fill:#E6E9EE;" d="M270,248.4h-93.6c-6.4,0-12-5.2-12-12l0,0c0-6.4,5.2-12,12-12H270c6.4,0,12,5.2,12,12l0,0
		C282,242.8,276.8,248.4,270,248.4z"/>
</g>
<circle style="fill:#54C0EB;" cx="340" cy="294.4" r="13.6"/>
<path style="fill:#324A5E;" d="M338.4,274.4c-2,0-4-1.6-4-4v-82.8h-9.6c-2,0-4-1.6-4-4c0-2,1.6-4,4-4h13.6c2,0,4,1.6,4,4v87.2
	C342.4,272.8,340.8,274.4,338.4,274.4z"/>
<g>
</g>
<g>
</g>
<g>
</g>
<g>
</g>
<g>
</g>
<g>
</g>
<g>
</g>
<g>
</g>
<g>
</g>
<g>
</g>
<g>
</g>
<g>
</g>
<g>
</g>
<g>
</g>
<g>
</g>
</svg>
