<?xml version="1.0" encoding="iso-8859-1"?>
<!-- Generator: Adobe Illustrator 19.0.0, SVG Export Plug-In . SVG Version: 6.00 Build 0)  -->
<svg version="1.1" id="Layer_1" xmlns="http://www.w3.org/2000/svg" xmlns:xlink="http://www.w3.org/1999/xlink" x="0px" y="0px"
	 viewBox="0 0 505 505" style="enable-background:new 0 0 505 505;" xml:space="preserve">
<circle style="fill:#90DFAA;" cx="252.5" cy="252.5" r="252.5"/>
<path style="fill:#E6E9EE;" d="M374.3,219.4c0,82.9-54.5,183.2-121.8,183.2S130.7,302.3,130.7,219.4s54.5-117,121.8-117
	S374.3,136.5,374.3,219.4z"/>
<path style="fill:#FFFFFF;" d="M289.6,302.9c-7.7-0.1-15,1.7-21.4,5.1c-10,5.3-21.6,5.3-31.5,0c-6.4-3.4-13.7-5.2-21.4-5.1
	c-23.5,0.4-43.2,19.8-43.8,43.3C170.8,371.4,191,392,216,392c15.1,0,28.4-7.5,36.4-19c8.1,11.5,21.4,19,36.4,19
	c25,0,45.2-20.6,44.5-45.8C332.8,322.7,313.1,303.3,289.6,302.9z"/>
<g>
	<path style="fill:#324A5E;" d="M282.3,299.4c0,12.3-13.4,30-29.8,30s-29.8-17.7-29.8-30s13.4-14.7,29.8-14.7
		S282.3,287.1,282.3,299.4z"/>
	<path style="fill:#324A5E;" d="M316.5,116c84,95,25.1,167.3,58.9,229.7C553.4,250.3,357.5,66.7,316.5,116z"/>
	<path style="fill:#324A5E;" d="M188.5,116c-84,95-25.1,167.3-58.9,229.7C-48.4,250.3,147.5,66.7,188.5,116z"/>
</g>
<path style="fill:#FFFFFF;" d="M274.9,230c1.6,12.8,11.6,22.8,22.3,22.3c10.7-0.5,18.1-11.4,16.5-24.2s-11.6-22.8-22.3-22.3
	S273.3,217.1,274.9,230z"/>
<path style="fill:#84DBFF;" d="M278.2,233.5c1,8.3,8.7,14.7,17.1,14.3s14.4-7.5,13.4-15.9c-1-8.3-8.7-14.7-17.1-14.3
	C283.1,218,277.1,225.1,278.2,233.5z"/>
<path style="fill:#2B3B4E;" d="M285.7,233.1c0.5,4.2,4.4,7.5,8.7,7.3s7.3-3.8,6.8-8s-4.4-7.5-8.7-7.3
	C288.2,225.3,285.2,228.9,285.7,233.1z"/>
<path style="fill:#FFFFFF;" d="M287.5,223.4c-1.1,1.9-0.1,4,2.4,4.6s5.4-0.5,6.6-2.4c1.1-1.9,0.1-4-2.4-4.6
	C291.5,220.4,288.6,221.4,287.5,223.4z"/>
<path style="fill:#324A5E;" d="M273.3,197.1c0,0,3-1.3,7.1-2.3c1-0.3,2.1-0.4,3.2-0.7c1.2-0.1,2.3-0.4,3.5-0.4
	c1.2-0.1,2.4-0.1,3.7,0c1.2,0,2.5,0.3,3.7,0.4c1.2,0.3,2.5,0.5,3.7,0.9c1.2,0.5,2.5,0.6,3.6,1.2c1.2,0.5,2.4,0.9,3.5,1.4
	s2.1,1,3.1,1.4c2,0.8,3.6,1.8,4.9,2.3s2,0.8,2,0.8s-0.3-0.7-1-1.9c-0.3-0.6-0.8-1.3-1.3-2.1s-1.1-1.7-2-2.6
	c-0.8-0.9-1.7-1.8-2.7-2.8c-1.1-0.9-2.3-1.7-3.5-2.6c-1.2-0.9-2.8-1.5-4.3-2.2s-3.2-1-4.8-1.4c-1.7-0.2-3.4-0.4-5.1-0.3
	c-1.7,0.1-3.3,0.3-4.9,0.8c-1.6,0.3-2.9,1.1-4.2,1.6c-1.2,0.7-2.4,1.4-3.3,2.2c-1.9,1.5-3.2,3.2-4,4.3
	C273.6,196.4,273.3,197.1,273.3,197.1z"/>
<path style="fill:#FFFFFF;" d="M230.1,230c-1.6,12.8-11.6,22.8-22.3,22.3c-10.7-0.5-18.1-11.4-16.5-24.2s11.6-22.8,22.3-22.3
	S231.7,217.1,230.1,230z"/>
<path style="fill:#84DBFF;" d="M226.8,233.5c-1,8.3-8.7,14.7-17.1,14.3c-8.4-0.4-14.4-7.5-13.4-15.9c1-8.3,8.7-14.7,17.1-14.3
	C221.9,218,227.9,225.1,226.8,233.5z"/>
<path style="fill:#2B3B4E;" d="M219.3,233.1c-0.5,4.2-4.4,7.5-8.7,7.3s-7.3-3.8-6.8-8s4.4-7.5,8.7-7.3S219.8,228.9,219.3,233.1z"/>
<path style="fill:#FFFFFF;" d="M217.5,223.4c1.1,1.9,0.1,4-2.4,4.6s-5.4-0.5-6.6-2.4c-1.1-1.9-0.1-4,2.4-4.6
	C213.5,220.4,216.4,221.4,217.5,223.4z"/>
<path style="fill:#324A5E;" d="M231.7,197.1c0,0-3-1.3-7.1-2.3c-1-0.3-2.1-0.4-3.2-0.7c-1.2-0.1-2.3-0.4-3.5-0.4
	c-1.2-0.1-2.4-0.1-3.7,0c-1.2,0-2.5,0.3-3.7,0.4c-1.2,0.3-2.5,0.5-3.7,0.9c-1.2,0.5-2.5,0.6-3.6,1.2c-1.2,0.5-2.4,0.9-3.5,1.4
	s-2.1,1-3.1,1.4c-2,0.8-3.6,1.8-4.9,2.3c-1.3,0.5-2,0.8-2,0.8s0.3-0.7,1-1.9c0.3-0.6,0.8-1.3,1.3-2.1s1.1-1.7,2-2.6
	c0.8-0.9,1.7-1.8,2.7-2.8c1-0.9,2.3-1.7,3.5-2.6c1.2-0.9,2.8-1.5,4.3-2.2s3.2-1,4.8-1.4c1.7-0.2,3.4-0.4,5.1-0.3
	c1.7,0.1,3.3,0.3,4.9,0.8c1.6,0.3,2.9,1.1,4.2,1.6c1.2,0.7,2.4,1.4,3.3,2.2c1.9,1.5,3.2,3.2,4,4.3
	C231.4,196.4,231.7,197.1,231.7,197.1z"/>
<g>
</g>
<g>
</g>
<g>
</g>
<g>
</g>
<g>
</g>
<g>
</g>
<g>
</g>
<g>
</g>
<g>
</g>
<g>
</g>
<g>
</g>
<g>
</g>
<g>
</g>
<g>
</g>
<g>
</g>
</svg>
