<?xml version="1.0" encoding="iso-8859-1"?>
<!-- Generator: Adobe Illustrator 19.0.0, SVG Export Plug-In . SVG Version: 6.00 Build 0)  -->
<svg version="1.1" id="Layer_1" xmlns="http://www.w3.org/2000/svg" xmlns:xlink="http://www.w3.org/1999/xlink" x="0px" y="0px"
	 viewBox="0 0 508 508" style="enable-background:new 0 0 508 508;" xml:space="preserve">
<circle style="fill:#FD8469;" cx="254" cy="254" r="254"/>
<path style="fill:#F9B54C;" d="M254,138.4l6-16.4c1.2-3.6,4.8-6,8.8-6h80.8c4,0,7.6,2.4,8.8,6l6,16.4h36.4c5.2,0,9.2,4,9.2,9.2V336
	c0,5.2-4,9.2-9.2,9.2H107.2c-5.2,0-9.2-4-9.2-9.2V147.6c0-5.2,4-9.2,9.2-9.2L254,138.4L254,138.4z"/>
<rect x="112.025" y="152.881" transform="matrix(-0.951 -0.3093 0.3093 -0.951 406.7443 548.249)" style="fill:#FFFFFF;" width="269.609" height="178.006"/>
<path style="fill:#FFD05B;" d="M254,222.4l-8-20.8c-2-4.8-6.4-8-11.6-8H129.6c-5.2,0-9.2,3.2-10,8l-4.4,20.8h-46
	c-6.4,0-10.4,5.2-9.2,11.2l36,151.6c0.8,4,6,7.2,11.2,7.2h294c5.2,0,10-3.2,11.2-7.2l36-151.6c1.6-6-2.8-11.2-9.2-11.2L254,222.4
	L254,222.4z"/>
<g>
</g>
<g>
</g>
<g>
</g>
<g>
</g>
<g>
</g>
<g>
</g>
<g>
</g>
<g>
</g>
<g>
</g>
<g>
</g>
<g>
</g>
<g>
</g>
<g>
</g>
<g>
</g>
<g>
</g>
</svg>
