<?xml version="1.0" encoding="iso-8859-1"?>
<!-- Generator: Adobe Illustrator 19.0.0, SVG Export Plug-In . SVG Version: 6.00 Build 0)  -->
<svg version="1.1" id="Layer_1" xmlns="http://www.w3.org/2000/svg" xmlns:xlink="http://www.w3.org/1999/xlink" x="0px" y="0px"
	 viewBox="0 0 512 512" style="enable-background:new 0 0 512 512;" xml:space="preserve">
<circle style="fill:#324A5E;" cx="256" cy="256" r="256"/>
<path style="fill:#FFFFFF;" d="M398.312,126.992H113.688c-7.66,0-14.11,6.45-14.11,14.11v229.795c0,7.66,6.45,14.11,14.11,14.11
	h284.624c7.66,0,14.11-6.45,14.11-14.11V141.102C412.422,133.443,405.972,126.992,398.312,126.992z"/>
<path style="fill:#E6E9EE;" d="M374.526,193.915h-43.943l19.351,19.351l-64.101,64.101l-41.524-41.524
	c-1.613-1.613-4.031-1.613-5.644,0l-53.216,53.619c-1.613,1.613-1.613,4.031,0,5.644c0.806,0.806,1.613,1.209,2.822,1.209
	c1.209,0,2.016-0.403,2.822-1.209l50.797-50.797l41.524,41.524c1.613,1.613,4.031,1.613,5.644,0l66.923-66.923l18.948,18.948
	L374.526,193.915z"/>
<polygon style="fill:#324A5E;" points="370.091,354.872 132.132,354.872 132.132,160.05 141.203,160.05 141.203,345.802 
	370.091,345.802 "/>
<circle style="fill:#FF7058;" cx="286.236" cy="280.592" r="18.948"/>
<circle style="fill:#F1543F;" cx="286.236" cy="280.592" r="9.676"/>
<g>
	<circle style="fill:#FF7058;" cx="241.89" cy="239.471" r="18.948"/>
	<circle style="fill:#FF7058;" cx="186.658" cy="292.283" r="18.948"/>
</g>
<g>
	<circle style="fill:#F1543F;" cx="241.89" cy="239.471" r="9.676"/>
	<circle style="fill:#F1543F;" cx="186.658" cy="292.283" r="9.676"/>
</g>
<g>
</g>
<g>
</g>
<g>
</g>
<g>
</g>
<g>
</g>
<g>
</g>
<g>
</g>
<g>
</g>
<g>
</g>
<g>
</g>
<g>
</g>
<g>
</g>
<g>
</g>
<g>
</g>
<g>
</g>
</svg>
