<?xml version="1.0" encoding="iso-8859-1"?>
<!-- Generator: Adobe Illustrator 19.0.0, SVG Export Plug-In . SVG Version: 6.00 Build 0)  -->
<svg version="1.1" id="Layer_1" xmlns="http://www.w3.org/2000/svg" xmlns:xlink="http://www.w3.org/1999/xlink" x="0px" y="0px"
	 viewBox="0 0 508 508" style="enable-background:new 0 0 508 508;" xml:space="preserve">
<circle style="fill:#84DBFF;" cx="254" cy="254" r="254"/>
<path style="fill:#E6E9EE;" d="M449.6,326.4c-34.8-8.4-50.4-16.8-56.8-21.6c-2.4-3.2-4.8-6-6-7.2l0,0c7.6-6,12.8-15.2,14.4-25.6
	c2.4-1.2,5.2-4.4,6.8-8.4c2-5.6,1.2-11.2-2-12.4c-1.6-0.4-3.6,0-5.2,1.6c-4.4-16.8-17.6-28.8-33.6-28.8s-29.2,12-33.6,28.8
	c-1.6-1.6-3.6-2.4-5.2-1.6c-3.2,1.2-4.4,6.4-2,12.4c1.6,4,4,7.2,6.8,8.4c1.6,10.8,7.2,19.6,14.4,25.6l0,0c-1.2,1.2-3.6,3.6-6,6.8
	c-6.4,4.8-22,13.2-56.8,21.6c0,0-0.4,4-1.2,10.4c2.4,3.2,5.2,6.4,8,9.2c6.8,6.8,14.4,12.4,22.8,17.2c1.6,1.2,3.6,2,5.6,2.8
	c9.2,4.4,19.2,7.6,30,9.2c2.4,0.4,4.8,0.8,7.2,0.8c0.4,0,0.4,0,0.8,0s1.2,0,2,0c2.4,0,4.8,0.4,7.2,0.4c2.4,0,4.8,0,7.2-0.4
	c0.8,0,1.2,0,1.6,0s0.4,0,0.8,0c2.4-0.4,5.2-0.4,7.6-0.8s4.4-0.8,6.8-1.2c0.8,0,1.2-0.4,2-0.4c2-0.4,4-0.8,6-1.6c2-0.8,4-1.2,6-2
	c0.4,0,0.8-0.4,1.2-0.4c4.8-1.6,9.2-4,13.6-6.4c8.4-4.8,16.4-10.4,22.8-17.2c2.8-2.8,5.6-6,8-9.2C450,330.4,449.6,326.4,449.6,326.4
	z"/>
<path style="fill:#324A5E;" d="M334.8,270.4c-18-34.4,7.2-45.6,7.2-45.6l-11.6,6c36-39.6,61.6-7.2,61.6-7.2
	c24.8,17.6,8.8,44.4,8.8,44.4s-2.8-19.6-13.6-28c0,0-12.8,13.2-42.4,1.2c0,0-6.8,9.6-4.4,22.4c0,0-2.8-1.6-4-8.4
	C336.8,254.8,333.2,263.6,334.8,270.4L334.8,270.4z"/>
<path style="fill:#E6E9EE;" d="M224,326.4c-34.8-8.4-50-16.8-56.8-21.6c-2.4-3.2-4.8-6-6-7.2l0,0c7.6-6,12.8-15.2,14.4-25.6
	c2.4-1.2,5.2-4.4,6.8-8.4c2-5.6,1.2-11.2-2-12.4c-1.6-0.4-3.6,0-5.2,1.6c-4.4-16.8-17.6-28.8-33.6-28.8s-29.2,12-33.6,28.8
	c-1.6-1.6-3.6-2.4-5.2-1.6c-3.2,1.2-4.4,6.4-2,12.4c1.6,4,4,7.2,6.8,8.4c1.6,10.8,7.2,19.6,14.4,25.6l0,0c-1.2,1.2-3.6,3.6-6,6.8
	c-6.4,4.8-22,13.2-56.8,21.6c0,0-0.4,4-1.2,10.4c2.4,3.2,5.2,6.4,8,9.2c6.8,6.8,14.4,12.4,22.8,17.2c1.6,1.2,3.6,2,5.6,2.8
	c9.2,4.4,19.2,7.6,30,9.2c2.4,0.4,4.8,0.8,7.2,0.8c0.4,0,0.4,0,0.8,0c0.4,0,1.2,0,2,0c2.4,0,4.8,0.4,7.2,0.4s4.8,0,7.2-0.4
	c0.8,0,1.2,0,1.6,0c0.4,0,0.4,0,0.8,0c2.4-0.4,5.2-0.4,7.6-0.8c2.4-0.4,4.4-0.8,6.8-1.2c0.8,0,1.2-0.4,2-0.4c2-0.4,4-0.8,6-1.6
	c2-0.8,4-1.2,6-2c0.4,0,0.8-0.4,1.2-0.4c4.8-1.6,9.2-4,13.6-6.4c8.4-4.8,16.4-10.4,22.8-17.2c2.8-2.8,5.6-6,8-9.2
	C224.4,330.4,224,326.4,224,326.4z"/>
<path style="fill:#324A5E;" d="M109.6,270.4c-18-34.4,7.2-46,7.2-46l-11.6,6c36-39.6,61.6-7.2,61.6-7.2c24.8,17.6,8.8,44.4,8.8,44.4
	s-2.8-19.6-13.6-28c0,0-12.8,13.2-42.4,1.2c0,0-6.8,9.6-4.4,22.4c0,0-2.8-1.6-4-8.4C111.2,254.8,107.6,263.6,109.6,270.4
	L109.6,270.4z"/>
<path style="fill:#FFFFFF;" d="M378.4,350c-52.4-12.8-75.6-25.2-85.6-32.8c-4-5.2-7.6-8.8-9.2-10.4l0,0c11.2-8.8,19.2-22.8,22-38.8
	c4-1.6,7.6-6.4,10-12.4c3.2-8.8,2-17.2-3.2-18.8c-2.4-0.8-5.2,0.4-8,2.8C298,214.4,277.6,196,254,196c-24,0-44,18.4-50.4,43.6
	c-2.8-2.4-5.6-3.2-8-2.8c-4.8,1.6-6.4,10-3.2,18.8c2.4,6,6,10.4,10,12.4c2.4,16,10.8,30,22,38.8l0,0c-1.6,1.6-5.2,5.6-9.2,10.4
	c-9.6,7.2-32.8,20-85.6,32.8c0,0-0.8,6-1.6,15.6c3.6,4.8,8,9.6,12,14c10,10,21.6,18.8,34.8,26c2.8,1.6,5.6,2.8,8.4,4.4
	c14,6.8,29.2,11.6,45.2,14c3.6,0.4,7.2,1.2,11.2,1.2c0.4,0,0.8,0,1.2,0c0.8,0,2,0,2.8,0c3.6,0.4,7.2,0.4,11.2,0.4
	c3.6,0,7.6,0,11.2-0.4c0.8,0,2,0,2.8,0c0.4,0,0.8,0,1.2,0c4-0.4,7.6-0.8,11.2-1.2c3.6-0.4,6.8-1.2,10.4-2c0.8,0,2-0.4,2.8-0.8
	c2.8-0.8,6-1.6,8.8-2.4c3.2-0.8,6-2,9.2-3.2c0.4,0,1.2-0.4,1.6-0.8c7.2-2.8,14-6,20.8-9.6c12.8-7.2,24.4-16,34.8-26
	c4.4-4.4,8.4-9.2,12-14C378.8,356,378.4,350,378.4,350z"/>
<path style="fill:#324A5E;" d="M205.6,265.2c-27.2-52,10.8-69.2,10.8-69.2l-17.6,9.2c54-59.6,92.8-10.8,92.8-10.8
	c37.6,26.8,13.2,66.8,13.2,66.8s-4.4-29.2-20.4-42.4c0,0-19.2,20-64,1.6c0,0-10.4,14.4-6.8,33.6c0,0-4.4-2.8-5.6-12.8
	C208,242,202.4,254.8,205.6,265.2L205.6,265.2z"/>
<path style="fill:#FFFFFF;" d="M304.8,104.8c0-22-22.8-40-50.8-40s-50.8,18-50.8,40c0,18,14.8,32.8,35.6,38l15.2,21.6l15.6-21.6
	C290,137.6,304.8,122.4,304.8,104.8z"/>
<g>
	<circle style="fill:#FF7058;" cx="228" cy="103.6" r="8"/>
	<circle style="fill:#FF7058;" cx="254" cy="103.6" r="8"/>
	<circle style="fill:#FF7058;" cx="280" cy="103.6" r="8"/>
</g>
<path style="fill:#FFFFFF;" d="M401.6,154.4c0-15.2-15.6-27.6-35.2-27.6c-19.2,0-35.2,12.4-35.2,27.6c0,12.4,10.4,22.8,24.4,26.4
	l10.8,14.8l10.8-14.8C391.6,177.2,401.6,166.8,401.6,154.4z"/>
<g>
	<circle style="fill:#4CDBC4;" cx="348.8" cy="153.6" r="5.6"/>
	<circle style="fill:#4CDBC4;" cx="366.8" cy="153.6" r="5.6"/>
	<circle style="fill:#4CDBC4;" cx="384.8" cy="153.6" r="5.6"/>
</g>
<path style="fill:#FFFFFF;" d="M173.2,154.4c0-15.2-15.6-27.6-35.2-27.6c-19.2,0-35.2,12.4-35.2,27.6c0,12.4,10.4,22.8,24.4,26.4
	l10.8,14.8l10.8-14.8C162.8,177.2,173.2,166.8,173.2,154.4z"/>
<g>
	<circle style="fill:#4CDBC4;" cx="120" cy="153.6" r="5.6"/>
	<circle style="fill:#4CDBC4;" cx="138" cy="153.6" r="5.6"/>
	<circle style="fill:#4CDBC4;" cx="156" cy="153.6" r="5.6"/>
</g>
<g>
</g>
<g>
</g>
<g>
</g>
<g>
</g>
<g>
</g>
<g>
</g>
<g>
</g>
<g>
</g>
<g>
</g>
<g>
</g>
<g>
</g>
<g>
</g>
<g>
</g>
<g>
</g>
<g>
</g>
</svg>
