<?xml version="1.0" encoding="iso-8859-1"?>
<!-- Generator: Adobe Illustrator 19.0.0, SVG Export Plug-In . SVG Version: 6.00 Build 0)  -->
<svg version="1.1" id="Layer_1" xmlns="http://www.w3.org/2000/svg" xmlns:xlink="http://www.w3.org/1999/xlink" x="0px" y="0px"
	 viewBox="0 0 508 508" style="enable-background:new 0 0 508 508;" xml:space="preserve">
<circle style="fill:#90DFAA;" cx="254" cy="254" r="254"/>
<path style="fill:#324A5E;" d="M413.6,386.4H94.4c-6,0-10.8-4.8-10.8-10.8V132.4c0-6,4.8-10.8,10.8-10.8H414c6,0,10.8,4.8,10.8,10.8
	V376C424.4,381.6,419.6,386.4,413.6,386.4z"/>
<rect x="96" y="177.2" style="fill:#FFFFFF;" width="316" height="190"/>
<g>
	<circle style="fill:#ACB3BA;" cx="402" cy="151.2" r="10"/>
	<circle style="fill:#ACB3BA;" cx="370.4" cy="151.2" r="10"/>
	<circle style="fill:#ACB3BA;" cx="339.2" cy="151.2" r="10"/>
</g>
<g>
	<rect x="121.2" y="195.6" style="fill:#84DBFF;" width="66" height="66"/>
	<rect x="223.6" y="195.6" style="fill:#84DBFF;" width="66" height="66"/>
	<rect x="326" y="195.6" style="fill:#84DBFF;" width="66" height="66"/>
</g>
<g>
	<rect x="121.2" y="281.2" style="fill:#E6E9EE;" width="66" height="12.4"/>
	<rect x="223.6" y="281.2" style="fill:#E6E9EE;" width="66" height="12.4"/>
	<rect x="326" y="281.2" style="fill:#E6E9EE;" width="66" height="12.4"/>
	<rect x="121.2" y="307.6" style="fill:#E6E9EE;" width="66" height="12.4"/>
	<rect x="223.6" y="307.6" style="fill:#E6E9EE;" width="66" height="12.4"/>
	<rect x="326" y="307.6" style="fill:#E6E9EE;" width="66" height="12.4"/>
	<rect x="121.2" y="334.4" style="fill:#E6E9EE;" width="66" height="12.4"/>
	<rect x="223.6" y="334.4" style="fill:#E6E9EE;" width="66" height="12.4"/>
	<rect x="326" y="334.4" style="fill:#E6E9EE;" width="66" height="12.4"/>
</g>
<g>
</g>
<g>
</g>
<g>
</g>
<g>
</g>
<g>
</g>
<g>
</g>
<g>
</g>
<g>
</g>
<g>
</g>
<g>
</g>
<g>
</g>
<g>
</g>
<g>
</g>
<g>
</g>
<g>
</g>
</svg>
