<?xml version="1.0" encoding="iso-8859-1"?>
<!-- Generator: Adobe Illustrator 19.0.0, SVG Export Plug-In . SVG Version: 6.00 Build 0)  -->
<svg version="1.1" id="Layer_1" xmlns="http://www.w3.org/2000/svg" xmlns:xlink="http://www.w3.org/1999/xlink" x="0px" y="0px"
	 viewBox="0 0 508 508" style="enable-background:new 0 0 508 508;" xml:space="preserve">
<circle style="fill:#90DFAA;" cx="254" cy="254" r="254"/>
<path style="fill:#FFFFFF;" d="M315.2,85.6H128.8c-9.6,0-17.2,7.6-17.2,17.2v302.8c0,9.6,7.6,17.2,17.2,17.2h186.4
	c9.6,0,17.2-7.6,17.2-17.2V102.8C332.4,93.2,324.4,85.6,315.2,85.6z"/>
<rect x="127.2" y="121.6" style="fill:#84DBFF;" width="189.2" height="250"/>
<polygon style="fill:#54C0EB;" points="316.4,121.6 127.2,371.6 316.4,371.6 "/>
<g>
	<circle style="fill:#E6E9EE;" cx="222" cy="395.2" r="14.8"/>
	<path style="fill:#E6E9EE;" d="M256.8,108h-49.2c-2.4,0-4.8-2-4.8-4.8l0,0c0-2.4,2-4.8,4.8-4.8h49.2c2.4,0,4.8,2,4.8,4.8l0,0
		C261.6,105.6,259.2,108,256.8,108z"/>
	<path style="fill:#E6E9EE;" d="M190.4,108h-3.6c-2.4,0-4.8-2-4.8-4.8l0,0c0-2.4,2-4.8,4.8-4.8h3.6c2.4,0,4.8,2,4.8,4.8l0,0
		C195.2,105.6,193.2,108,190.4,108z"/>
</g>
<path style="fill:#FF7058;" d="M380.4,345.2H211.2c-8.8,0-16-7.2-16-16v-40.8c0-8.8,7.2-16,16-16h169.6c8.8,0,16,7.2,16,16v40.8
	C396.4,338,389.2,345.2,380.4,345.2z"/>
<g>
	<polygon style="fill:#324A5E;" points="186.4,150.8 222.8,199.2 258.8,150.8 	"/>
	<rect x="208.8" y="121.6" style="fill:#324A5E;" width="28" height="36.8"/>
</g>
<g>
	<path style="fill:#FFFFFF;" d="M221.6,303.2c1.6,1.2,2,3.2,2,5.6s-0.8,4-2,5.6c-1.2,1.2-3.6,2-6.4,2H210v-14.8h5.2
		C218,301.2,220,302,221.6,303.2z M218.8,312c0.8-0.8,1.2-2,1.2-3.2c0-1.6-0.4-2.4-1.2-3.2c-0.8-0.8-2-1.2-3.6-1.2h-2v9.2h2
		C216.8,313.2,218,312.8,218.8,312z"/>
	<path style="fill:#FFFFFF;" d="M238.8,314.4c-1.6,1.6-3.2,2.4-5.6,2.4c-2.4,0-4-0.8-5.6-2.4s-2.4-3.2-2.4-5.6c0-2,0.8-4,2.4-5.6
		c1.6-1.6,3.2-2.4,5.6-2.4c2.4,0,4,0.8,5.6,2.4s2.4,3.2,2.4,5.6C241.2,310.8,240.4,312.8,238.8,314.4z M238,308.8
		c0-1.2-0.4-2.4-1.2-3.6c-0.8-0.8-2-1.6-3.2-1.6s-2.4,0.4-3.2,1.6c-0.8,0.8-1.2,2-1.2,3.6c0,1.2,0.4,2.4,1.2,3.2
		c0.8,0.8,2,1.2,3.2,1.2s2.4-0.4,3.2-1.2C237.6,311.2,238,310,238,308.8z"/>
	<path style="fill:#FFFFFF;" d="M248.4,310l2.8-8.4h3.6l2.8,8.4l2.8-8.4h3.6l-5.2,14.8h-2.4l-3.6-10.4l-3.2,10.4h-2.4l-5.2-15.2h3.6
		L248.4,310z"/>
	<path style="fill:#FFFFFF;" d="M276,301.2h3.2V316H276l-7.2-9.2v9.2h-3.2v-14.8h3.2l7.2,9.6V301.2z"/>
	<path style="fill:#FFFFFF;" d="M282.8,316.4v-14.8h3.2v12h6.4v2.8H282.8z"/>
	<path style="fill:#FFFFFF;" d="M307.2,314.4c-1.6,1.6-3.2,2.4-5.6,2.4s-4-0.8-5.6-2.4s-2.4-3.2-2.4-5.6c0-2,0.8-4,2.4-5.6
		s3.2-2.4,5.6-2.4s4,0.8,5.6,2.4s2.4,3.2,2.4,5.6C309.6,310.8,308.8,312.8,307.2,314.4z M306,308.8c0-1.2-0.4-2.4-1.2-3.6
		c-0.8-0.8-2-1.6-3.2-1.6s-2.4,0.4-3.2,1.6c-0.8,0.8-1.2,2-1.2,3.6c0,1.2,0.4,2.4,1.2,3.2c0.8,0.8,2,1.2,3.2,1.2s2.4-0.4,3.2-1.2
		C305.6,311.2,306,310,306,308.8z"/>
	<path style="fill:#FFFFFF;" d="M322.4,316.4l-1.2-3.2h-6.4l-1.2,3.2H310l6.4-14.8h3.2l6.4,14.8H322.4z M318,306l-2,4h3.6L318,306z"
		/>
	<path style="fill:#FFFFFF;" d="M339.2,303.2c1.6,1.2,2,3.2,2,5.6s-0.8,4-2,5.6c-1.2,1.2-3.6,2-6.4,2h-5.2v-14.8h5.2
		C335.6,301.2,337.6,302,339.2,303.2z M336.8,312c0.8-0.8,1.2-2,1.2-3.2c0-1.6-0.4-2.4-1.2-3.2c-0.8-0.8-2-1.2-3.6-1.2h-2v9.2h2
		C334.8,313.2,336,312.8,336.8,312z"/>
	<path style="fill:#FFFFFF;" d="M344,301.2h3.2V316H344V301.2z"/>
	<path style="fill:#FFFFFF;" d="M361.6,301.2h3.2V316h-3.2l-7.2-9.2v9.2h-3.2v-14.8h3.2l7.2,9.6V301.2z"/>
	<path style="fill:#FFFFFF;" d="M378.4,308.8h3.2v5.2c-1.6,1.6-3.6,2.4-6,2.4c-2,0-4-0.8-5.6-2c-1.6-1.6-2.4-3.2-2.4-5.6
		s0.8-4,2.4-5.6s3.2-2.4,5.6-2.4c2,0,4,0.8,5.6,2l-1.6,2.4c-0.8-0.4-1.2-0.8-2-1.2c-0.4-0.4-1.2-0.4-2-0.4c-1.2,0-2.4,0.4-3.2,1.2
		c-0.8,0.8-1.2,2-1.2,3.6s0.4,2.4,1.2,3.2c0.8,0.8,2,1.2,2.8,1.2c1.2,0,2-0.4,2.8-0.8v-3.2H378.4z"/>
</g>
<g>
</g>
<g>
</g>
<g>
</g>
<g>
</g>
<g>
</g>
<g>
</g>
<g>
</g>
<g>
</g>
<g>
</g>
<g>
</g>
<g>
</g>
<g>
</g>
<g>
</g>
<g>
</g>
<g>
</g>
</svg>
