<?xml version="1.0" encoding="iso-8859-1"?>
<!-- Generator: Adobe Illustrator 19.0.0, SVG Export Plug-In . SVG Version: 6.00 Build 0)  -->
<svg version="1.1" id="Layer_1" xmlns="http://www.w3.org/2000/svg" xmlns:xlink="http://www.w3.org/1999/xlink" x="0px" y="0px"
	 viewBox="0 0 508 508" style="enable-background:new 0 0 508 508;" xml:space="preserve">
<circle style="fill:#84DBFF;" cx="254" cy="254" r="254"/>
<g>
	<path style="fill:#FFFFFF;" d="M286.8,72.8h-65.6c-10.4,0-18.4,8.4-18.4,18.4v65.6c0,10.4,8.4,18.4,18.4,18.4h65.6
		c10.4,0,18.4-8.4,18.4-18.4V91.6C305.2,81.2,297.2,72.8,286.8,72.8z"/>
	<path style="fill:#FFFFFF;" d="M286.8,202.8h-65.6c-10.4,0-18.4,8.4-18.4,18.4v65.6c0,10.4,8.4,18.4,18.4,18.4h65.6
		c10.4,0,18.4-8.4,18.4-18.4v-65.6C305.2,210.8,297.2,202.8,286.8,202.8z"/>
	<path style="fill:#FFFFFF;" d="M286.8,332.4h-65.6c-10.4,0-18.4,8.4-18.4,18.4v65.6c0,10.4,8.4,18.4,18.4,18.4h65.6
		c10.4,0,18.4-8.4,18.4-18.4v-65.6C305.2,340.8,297.2,332.4,286.8,332.4z"/>
</g>
<g>
	<path style="fill:#324A5E;" d="M368,258v-8c30.4,0,54.8-24.8,54.8-54.8v-12.4c0-30.4-24.8-54.8-54.8-54.8h-41.2v-7.6H368
		c34.4,0,62.4,28,62.4,62.4v12.4C430.8,229.6,402.8,258,368,258z"/>
	<polygon style="fill:#324A5E;" points="370.4,231.2 326.8,254 370.4,276.8 	"/>
	<path style="fill:#324A5E;" d="M140,384.4c-34.4,0-62.4-28-62.4-62.4v-12.4c0-34.4,28-62.4,62.4-62.4h41.2v7.6H140
		c-30.4,0-54.8,24.8-54.8,54.8V322c0,30.4,24.8,54.8,54.8,54.8V384.4z"/>
	<polygon style="fill:#324A5E;" points="137.6,357.6 181.2,380.4 137.6,403.2 	"/>
	<polygon style="fill:#324A5E;" points="137.6,101.6 181.2,124.4 137.6,146.8 	"/>
</g>
<g>
</g>
<g>
</g>
<g>
</g>
<g>
</g>
<g>
</g>
<g>
</g>
<g>
</g>
<g>
</g>
<g>
</g>
<g>
</g>
<g>
</g>
<g>
</g>
<g>
</g>
<g>
</g>
<g>
</g>
</svg>
