<?xml version="1.0" encoding="iso-8859-1"?>
<!-- Generator: Adobe Illustrator 19.0.0, SVG Export Plug-In . SVG Version: 6.00 Build 0)  -->
<svg version="1.1" id="Layer_1" xmlns="http://www.w3.org/2000/svg" xmlns:xlink="http://www.w3.org/1999/xlink" x="0px" y="0px"
	 viewBox="0 0 508 508" style="enable-background:new 0 0 508 508;" xml:space="preserve">
<circle style="fill:#90DFAA;" cx="254" cy="254" r="254"/>
<g>
	<rect x="296.4" y="229.2" style="fill:#324A5E;" width="100" height="12.8"/>
	<path style="fill:#324A5E;" d="M396.4,322h-62c-3.2,0-6-2.8-6-6V156c0-3.2,2.8-6,6-6h62v12h-56v148h56V322z"/>
	<path style="fill:#324A5E;" d="M102.4,365.6c-12.8-7.6-24-16.8-34-27.6c-4.4-4.8-8.4-9.6-12-14.8c0.8-10,1.6-16.4,1.6-16.4l0,0
		c1.2,0.8,19.2,12,27.6,12C91.2,318.8,100.4,342.4,102.4,365.6z"/>
</g>
<path style="fill:#54C0EB;" d="M244.8,361.2l-7.2,13.6l-0.8,1.6c-2.8,1.2-6,2.4-8.8,3.2c-2.8,0.8-5.6,2-8.8,2.4
	c-0.8,0.4-1.6,0.4-2.8,0.8c-3.2,0.8-6.8,1.6-10,2c-3.6,0.8-7.2,1.2-10.8,1.6c-0.4,0-0.8,0-1.2,0c-0.8,0-1.6,0-2.8,0.4
	c-3.6,0.4-7.2,0.4-10.8,0.4s-7.2,0-10.8-0.4c-0.8,0-2,0-2.8-0.4c-0.4,0-0.8,0-1.2,0c-3.6-0.4-7.2-0.8-10.8-1.6
	c-15.6-2.8-30.4-7.6-44.4-14.8c-5.2-20.4-10.4-42.8-7.6-46c4.8-5.6,23.6-30.8,23.6-30.8l7.2-2l14.8-4.4l2.4-0.8l0.8-0.4l2-0.8
	l10-2.8l17.2-4.8L198,282l10,2.8l2,0.4l0.8,0.4l2.4,0.8l15.6,4l12.4,3.2L244.8,361.2z"/>
<path style="fill:#FF7058;" d="M192.8,380.4l1.2,6.4c-0.8,0-1.6,0-2.8,0.4c-3.6,0.4-7.2,0.4-10.8,0.4s-7.2,0-10.8-0.4
	c-0.8,0-2,0-2.8-0.4l1.2-6.4l10.4-56.8l-11.2-14l-10.4-13.2h47.6L194,309.2l-11.2,14L192.8,380.4z"/>
<path style="fill:#E6E9EE;" d="M210.4,270.8c0,22-13.6,25.6-30,25.6s-30-3.2-30-25.6s13.6-57.6,30-57.6S210.4,248.8,210.4,270.8z"/>
<g>
	<path style="fill:#324A5E;" d="M165.6,386.8c-3.6-0.4-7.2-0.8-10.8-1.6c-15.6-2.8-30.4-7.6-44.4-14.8c-2.8-1.2-5.6-2.8-8-4.4
		c-12.8-7.6-24-16.8-34-27.6c-5.6-18.8-10-30.8-10-31.2l0,0c51.6-13.6,74.4-27.2,84-35.2c5.6-4.4,6.8-7.2,6.8-7.2c0,0.4,0,0.8,0,1.6
		c0.4,6.8,0.8,13.6,1.6,20.4c0.4,4,0.8,8.4,1.2,12.4C154.8,332.8,160,362.8,165.6,386.8z"/>
	<path style="fill:#324A5E;" d="M169.6,386.8c-0.8,0-2,0-2.8-0.4c-0.4,0-0.8,0-1.2,0c-3.6-0.4-7.2-0.8-10.8-1.6
		C140,346,126,306,126,306l14.4-7.2l-7.2-7.2L132,290c2.8-6.8,6.4-13.2,10-18.4c3.6-5.6,7.2-9.2,8.8-11.2c0,0,0.4,0,0.4-0.4
		c0.8-0.8,0.8-0.8,0.8-0.8c0,0.4,0,0.4-0.4,0.8c0,0.4-0.4,0.8-0.4,1.2c-0.8,3.6-1.2,8.4-1.2,14.4l0,0c0,3.2,0.4,6.8,0.4,10.8
		c0.4,5.2,1.2,10.8,2,16.8l0,0c4,22.8,9.6,50.8,15.6,77.2C168.4,382.4,169.2,384.8,169.6,386.8z"/>
	<path style="fill:#324A5E;" d="M304.4,323.2c-3.6,5.2-7.6,10-12,14.8c-10,10.8-21.2,20-34,27.6c2-23.6,11.6-47.2,16.8-47.2
		c8.4,0,26.4-11.2,27.6-12l0,0C302.8,306.4,303.6,312.8,304.4,323.2z"/>
	<path style="fill:#324A5E;" d="M302.8,306.8L302.8,306.8c-0.4,0.8-4.4,12.8-10.4,31.2c-10,10.8-21.2,20-34,27.6
		c-6.4,4-13.2,7.2-20.4,10c-0.4,0.4-1.2,0.4-1.6,0.8c-2.8,1.2-6,2.4-8.8,3.2c-2.8,0.8-5.6,2-8.8,2.4c-0.8,0.4-1.6,0.4-2.8,0.8
		c-3.2,0.8-6.8,1.6-10,2c-3.6,0.8-7.2,1.2-10.8,1.6c5.6-24,10.8-53.6,14.4-88.4c0.4-4.4,0.8-8.4,1.2-13.2c0.4-6.4,0.8-12.8,1.2-19.6
		l0,0c0-0.4,0-0.8,0-1.2c0,0,1.2,2.8,6.8,7.2C228.4,279.6,251.2,292.8,302.8,306.8z"/>
	<path style="fill:#324A5E;" d="M234.8,306c0,0-13.6,40-28.4,79.2c-3.6,0.8-7.2,1.2-10.8,1.6c-0.4,0-0.8,0-1.2,0
		c-0.8,0-1.6,0-2.8,0.4c0.4-2,1.2-4.4,1.6-6.8c6-26,11.6-54.4,14.8-77.6l0,0c0.8-6.4,1.6-12,2-17.2c0.4-3.6,0.4-7.2,0.4-10.4v-0.4
		l0,0c0-5.6-0.4-10-1.2-13.6l0,0c0-0.4,0-0.8-0.4-0.8c0-0.4,0-0.4-0.4-0.8c0,0,0.4,0.4,0.8,0.8c0,0,0,0.4,0.4,0.4
		c1.6,2,5.2,6,9.2,11.2c3.6,5.2,7.2,11.6,10,18.4l0,0l-8.4,8.4L234.8,306z"/>
</g>
<g>
	<ellipse style="fill:#FFFFFF;" cx="180.4" cy="206.8" rx="51.6" ry="64.8"/>
	
		<ellipse transform="matrix(0.3227 -0.9465 0.9465 0.3227 -34.3394 356.6847)" style="fill:#FFFFFF;" cx="232.057" cy="202.336" rx="18" ry="9.2"/>
	
		<ellipse transform="matrix(0.3227 0.9465 -0.9465 0.3227 279.1182 15.3438)" style="fill:#FFFFFF;" cx="128.838" cy="202.701" rx="18" ry="9.2"/>
</g>
<path style="fill:#324A5E;" d="M133.6,216.4c-26.8-55.6,10.4-74,10.4-74l-17.2,10C180,88.8,218,140.8,218,140.8
	c36.8,28.4,12.8,71.6,12.8,71.6s-4.4-31.2-20-45.2c0,0-18.8,21.6-62.4,1.6c0,0-10.4,15.6-6.4,36c0,0-4.4-2.8-5.6-13.6
	C136,191.2,130.8,205.2,133.6,216.4L133.6,216.4z"/>
<g>
	<path style="fill:#84DBFF;" d="M152.4,259.2c0,0,4.4,25.6,28,37.2c0,0-16,12.4-18.8,22.4C161.6,318.4,136,281.6,152.4,259.2z"/>
	<path style="fill:#84DBFF;" d="M208.4,259.2c0,0-4.4,25.6-28,37.2c0,0,16,12.4,18.8,22.4C199.2,318.4,224.8,281.6,208.4,259.2z"/>
</g>
<path style="fill:#324A5E;" d="M238.4,376c-0.4,0.4-1.2,0.4-1.6,0.8c-2.8,1.2-6,2.4-8.8,3.2l7.2-7.2L238.4,376z"/>
<g>
	<circle style="fill:#FFFFFF;" cx="396.4" cy="236" r="26.4"/>
	<circle style="fill:#FFFFFF;" cx="396.4" cy="155.6" r="26.4"/>
	<circle style="fill:#FFFFFF;" cx="396.4" cy="316" r="26.4"/>
</g>
<g>
</g>
<g>
</g>
<g>
</g>
<g>
</g>
<g>
</g>
<g>
</g>
<g>
</g>
<g>
</g>
<g>
</g>
<g>
</g>
<g>
</g>
<g>
</g>
<g>
</g>
<g>
</g>
<g>
</g>
</svg>
