<?xml version="1.0" encoding="iso-8859-1"?>
<!-- Generator: Adobe Illustrator 19.0.0, SVG Export Plug-In . SVG Version: 6.00 Build 0)  -->
<svg version="1.1" id="Layer_1" xmlns="http://www.w3.org/2000/svg" xmlns:xlink="http://www.w3.org/1999/xlink" x="0px" y="0px"
	 viewBox="0 0 508 508" style="enable-background:new 0 0 508 508;" xml:space="preserve">
<circle style="fill:#90DFAA;" cx="254" cy="254" r="254"/>
<path style="fill:#FFFFFF;" d="M294.4,172h-79.6c-14,0-25.2-11.2-25.2-25.2v-41.2c0-14,11.2-25.2,25.2-25.2h79.6
	c14,0,25.2,11.2,25.2,25.2v41.6C319.6,160.8,308.4,172,294.4,172z M214.8,100.4c-2.8,0-5.2,2.4-5.2,5.2v41.6c0,2.8,2.4,5.2,5.2,5.2
	h79.6c2.8,0,5.2-2.4,5.2-5.2v-41.6c0-2.8-2.4-5.2-5.2-5.2H214.8z"/>
<path style="fill:#324A5E;" d="M404.8,377.2H103.2C96.8,377.2,92,372,92,366V230.8c0-6.4,5.2-11.2,11.2-11.2h301.2
	c6.4,0,11.2,5.2,11.2,11.2V366C416,372,410.8,377.2,404.8,377.2z"/>
<path style="fill:#2B3B4E;" d="M404.8,275.6H103.2c-6.4,0-11.2-5.2-11.2-11.2V152.8c0-6.4,5.2-11.2,11.2-11.2h301.2
	c6.4,0,11.2,5.2,11.2,11.2V264C416,270.4,410.8,275.6,404.8,275.6z"/>
<path style="fill:#324A5E;" d="M404.8,264.8H103.2c-6.4,0-11.2-5.2-11.2-11.2V142c0-6.4,5.2-11.2,11.2-11.2h301.2
	c6.4,0,11.2,5.2,11.2,11.2v111.2C416,259.6,410.8,264.8,404.8,264.8z"/>
<g>
	<path style="fill:#FFD05B;" d="M358,386.4h-16.4c-2.8,0-5.2-2.4-5.2-5.2V126.4c0-2.8,2.4-5.2,5.2-5.2H358c2.8,0,5.2,2.4,5.2,5.2
		v254.8C362.8,384.4,360.8,386.4,358,386.4z"/>
	<path style="fill:#FFD05B;" d="M166.4,386.4H150c-2.8,0-5.2-2.4-5.2-5.2V126.4c0-2.8,2.4-5.2,5.2-5.2h16.4c2.8,0,5.2,2.4,5.2,5.2
		v254.8C171.6,384.4,169.2,386.4,166.4,386.4z"/>
</g>
<g>
	<path style="fill:#FFFFFF;" d="M364,340h-28.4c-6.8,0-12.4-5.6-12.4-12.4v-20c0-6.8,5.6-12.4,12.4-12.4H364
		c6.8,0,12.4,5.6,12.4,12.4v20C376.4,334.4,370.8,340,364,340z M335.6,304.8c-1.6,0-2.8,1.2-2.8,2.8v20c0,1.6,1.2,2.8,2.8,2.8H364
		c1.6,0,2.8-1.2,2.8-2.8v-20c0-1.6-1.2-2.8-2.8-2.8H335.6z"/>
	<path style="fill:#FFFFFF;" d="M172.4,340H144c-6.8,0-12.4-5.6-12.4-12.4v-20c0-6.8,5.6-12.4,12.4-12.4h28.4
		c6.8,0,12.4,5.6,12.4,12.4v20C184.8,334.4,179.2,340,172.4,340z M144,304.8c-1.6,0-2.8,1.2-2.8,2.8v20c0,1.6,1.2,2.8,2.8,2.8h28.4
		c1.6,0,2.8-1.2,2.8-2.8v-20c0-1.6-1.2-2.8-2.8-2.8H144z"/>
</g>
<g>
	<rect x="336.4" y="315.6" style="fill:#FFD05B;" width="26.8" height="42"/>
	<rect x="145.2" y="315.6" style="fill:#FFD05B;" width="26.8" height="42"/>
</g>
<g>
	<path style="fill:#FFFFFF;" d="M158.4,315.6L158.4,315.6c-2.4,0-4.4-2-4.4-4.4V294c0-2.4,2-4.4,4.4-4.4l0,0c2.4,0,4.4,2,4.4,4.4
		v17.2C162.8,313.6,160.8,315.6,158.4,315.6z"/>
	<path style="fill:#FFFFFF;" d="M349.6,315.6L349.6,315.6c-2.4,0-4.4-2-4.4-4.4V294c0-2.4,2-4.4,4.4-4.4l0,0c2.4,0,4.4,2,4.4,4.4
		v17.2C354.4,313.6,352,315.6,349.6,315.6z"/>
</g>
<g>
</g>
<g>
</g>
<g>
</g>
<g>
</g>
<g>
</g>
<g>
</g>
<g>
</g>
<g>
</g>
<g>
</g>
<g>
</g>
<g>
</g>
<g>
</g>
<g>
</g>
<g>
</g>
<g>
</g>
</svg>
