<?xml version="1.0" encoding="iso-8859-1"?>
<!-- Generator: Adobe Illustrator 19.0.0, SVG Export Plug-In . SVG Version: 6.00 Build 0)  -->
<svg version="1.1" id="Layer_1" xmlns="http://www.w3.org/2000/svg" xmlns:xlink="http://www.w3.org/1999/xlink" x="0px" y="0px"
	 viewBox="0 0 508 508" style="enable-background:new 0 0 508 508;" xml:space="preserve">
<circle style="fill:#324A5E;" cx="254" cy="254" r="254"/>
<polygon style="fill:#FFD05B;" points="220,417.6 229.2,474 235.6,436.8 241.6,474 248,436.8 254,474 260,436.8 266.4,474 
	272.4,436.8 278.8,474 288,417.6 "/>
<path style="fill:#FF7058;" d="M365.6,386c0,9.2-1.2,18.4-3.2,26.8c-22.4-36-62.4-60.4-108.4-60.4s-86,24.4-108.4,60.8
	c-2-8.8-3.2-17.6-3.2-26.8c0-61.6,50-111.6,111.6-111.6C315.6,274.4,365.6,324.4,365.6,386z"/>
<path style="fill:#FFFFFF;" d="M291.6,400c20-32.8,33.2-131.6,33.2-198.4C324.8,98.8,254,56,254,56s-70.8,42.8-70.8,145.6
	c0,66.8,13.2,165.2,33.2,198.4H291.6z"/>
<path style="fill:#FF7058;" d="M306,117.6C285.2,74.8,254,56,254,56s-31.2,18.8-52,61.6H306z"/>
<circle style="fill:#54C0EB;" cx="254" cy="212.4" r="35.2"/>
<g>
	<path style="fill:#84DBFF;" d="M278,186.8c-1.6-1.6-3.6-3.2-5.6-4.4L224,230.8c1.2,2,2.8,4,4.4,5.6L278,186.8z"/>
	<path style="fill:#84DBFF;" d="M282.4,192l-48.8,49.2c1.2,0.8,2.8,2,4.4,2.8l47.2-47.2C284.4,194.8,283.6,193.6,282.4,192z"/>
</g>
<g>
</g>
<g>
</g>
<g>
</g>
<g>
</g>
<g>
</g>
<g>
</g>
<g>
</g>
<g>
</g>
<g>
</g>
<g>
</g>
<g>
</g>
<g>
</g>
<g>
</g>
<g>
</g>
<g>
</g>
</svg>
