<?xml version="1.0" encoding="iso-8859-1"?>
<!-- Generator: Adobe Illustrator 19.0.0, SVG Export Plug-In . SVG Version: 6.00 Build 0)  -->
<svg version="1.1" id="Layer_1" xmlns="http://www.w3.org/2000/svg" xmlns:xlink="http://www.w3.org/1999/xlink" x="0px" y="0px"
	 viewBox="0 0 508 508" style="enable-background:new 0 0 508 508;" xml:space="preserve">
<circle style="fill:#FD8469;" cx="254" cy="254" r="254"/>
<polygon style="fill:#FFD05B;" points="426.8,246.8 270.4,246.8 380.8,136 372.4,127.6 262,238.4 262,82 250,82 250,238.4 
	139.2,127.6 130.8,136 241.6,246.8 85.2,246.8 85.2,258.8 241.6,258.8 130.8,369.2 139.2,377.6 250,267.2 250,423.6 262,423.6 
	262,267.2 372.4,377.6 380.8,369.2 270.4,258.8 426.8,258.8 "/>
<g>
	<circle style="fill:#FFFFFF;" cx="253.6" cy="252" r="108"/>
	<circle style="fill:#FFFFFF;" cx="84" cy="252" r="28.4"/>
	<circle style="fill:#FFFFFF;" cx="423.6" cy="252" r="28.4"/>
	<circle style="fill:#FFFFFF;" cx="253.6" cy="82.4" r="28.4"/>
	<circle style="fill:#FFFFFF;" cx="253.6" cy="421.6" r="28.4"/>
	<circle style="fill:#FFFFFF;" cx="133.6" cy="132" r="28.4"/>
	<circle style="fill:#FFFFFF;" cx="373.6" cy="372" r="28.4"/>
	<circle style="fill:#FFFFFF;" cx="373.6" cy="132" r="28.4"/>
	<circle style="fill:#FFFFFF;" cx="133.6" cy="372" r="28.4"/>
</g>
<g>
	<circle style="fill:#324A5E;" cx="253.6" cy="212" r="37.6"/>
	<path style="fill:#324A5E;" d="M325.6,332.4c-19.2,17.2-44.4,27.6-72,27.6s-52.8-10.4-72-27.6c2.8-37.2,34-66.8,72-66.8
		C291.6,265.6,322.8,294.8,325.6,332.4z"/>
</g>
<g>
</g>
<g>
</g>
<g>
</g>
<g>
</g>
<g>
</g>
<g>
</g>
<g>
</g>
<g>
</g>
<g>
</g>
<g>
</g>
<g>
</g>
<g>
</g>
<g>
</g>
<g>
</g>
<g>
</g>
</svg>
