<?xml version="1.0" encoding="iso-8859-1"?>
<!-- Generator: Adobe Illustrator 19.0.0, SVG Export Plug-In . SVG Version: 6.00 Build 0)  -->
<svg version="1.1" id="Layer_1" xmlns="http://www.w3.org/2000/svg" xmlns:xlink="http://www.w3.org/1999/xlink" x="0px" y="0px"
	 viewBox="0 0 508 508" style="enable-background:new 0 0 508 508;" xml:space="preserve">
<circle style="fill:#90DFAA;" cx="254" cy="254" r="254"/>
<path style="fill:#2C9984;" d="M58.4,416c46.4,56,116.8,92,195.6,92s148.8-35.6,195.6-92H58.4z"/>
<g>
	<rect x="371.2" y="142.4" style="fill:#FFFFFF;" width="44.4" height="273.6"/>
	<rect x="301.6" y="196.8" style="fill:#FFFFFF;" width="44.4" height="219.2"/>
	<rect x="232" y="107.6" style="fill:#FFFFFF;" width="44.4" height="308.4"/>
	<rect x="162" y="225.6" style="fill:#FFFFFF;" width="44.4" height="190.4"/>
	<rect x="92.4" y="254.4" style="fill:#FFFFFF;" width="44.4" height="161.6"/>
</g>
<path style="fill:#FF7058;" d="M388.4,321.2l-0.8-104.4L290.8,256l24,16c-38.8,66-130.4,99.2-214,56c72,60.8,188.8,58,262.4-23.6
	L388.4,321.2z"/>
<g>
</g>
<g>
</g>
<g>
</g>
<g>
</g>
<g>
</g>
<g>
</g>
<g>
</g>
<g>
</g>
<g>
</g>
<g>
</g>
<g>
</g>
<g>
</g>
<g>
</g>
<g>
</g>
<g>
</g>
</svg>
