<?xml version="1.0" encoding="iso-8859-1"?>
<!-- Generator: Adobe Illustrator 19.0.0, SVG Export Plug-In . SVG Version: 6.00 Build 0)  -->
<svg version="1.1" id="Layer_1" xmlns="http://www.w3.org/2000/svg" xmlns:xlink="http://www.w3.org/1999/xlink" x="0px" y="0px"
	 viewBox="0 0 508 508" style="enable-background:new 0 0 508 508;" xml:space="preserve">
<circle style="fill:#4CDBC4;" cx="254" cy="254" r="254"/>
<g>
	<path style="fill:#324A5E;" d="M258.4,438l-131.6-56.8L74.4,254l52.8-127.2L254,74.4l127.2,52.8l53.2,128.4L344,344L258.4,438z
		 M134.8,373.2l120.8,52.4l80.8-88.8l85.6-84l-48.8-118L254,85.2l-119.2,49.6L85.2,254L134.8,373.2z"/>
	<path style="fill:#324A5E;" d="M373.2,142.4l9.2-9.2l-7.6-7.2l-8.4,8.4C369.2,136,371.6,138.8,373.2,142.4z"/>
	<path style="fill:#324A5E;" d="M336,343.6l1.6,1.6l7.2-7.2l-5.2-5.2C339.6,336.8,338.4,340.4,336,343.6z"/>
	<path style="fill:#324A5E;" d="M149.2,142l-16-16l-7.2,7.2l14.4,14.4C142.8,144.8,145.6,143.2,149.2,142z"/>
	<path style="fill:#324A5E;" d="M430,248.8H266.4l17.6-17.6c-3.2-1.6-6-4-8-6.8l-16.8,16.8V78h-10.4v163.6l-19.2-19.2
		c-1.2,3.2-3.2,6.4-5.6,8.8l17.6,17.6H78v10.4h163.6L226.4,274c2.8,2,5.6,4.4,7.2,7.6l15.2-15.2V430h10.4V266.4l20.4,20.4
		c1.6-3.2,3.6-6,6.4-8l-19.6-19.6H430L430,248.8L430,248.8z"/>
	<path style="fill:#324A5E;" d="M132.8,368l-6.8,6.8l7.2,7.2l10.8-10.8C140,371.6,136,370.4,132.8,368z"/>
</g>
<g>
	<circle style="fill:#FFFFFF;" cx="254" cy="254" r="52"/>
	<circle style="fill:#FFFFFF;" cx="254" cy="80" r="33.6"/>
	<circle style="fill:#FFFFFF;" cx="254" cy="428" r="33.6"/>
	<circle style="fill:#FFFFFF;" cx="428" cy="254" r="33.6"/>
	<circle style="fill:#FFFFFF;" cx="80" cy="254" r="33.6"/>
	<circle style="fill:#FFFFFF;" cx="377.2" cy="130.8" r="33.6"/>
	<circle style="fill:#FFFFFF;" cx="130.8" cy="377.2" r="33.6"/>
	<circle style="fill:#FFFFFF;" cx="340.4" cy="340.4" r="33.6"/>
	<circle style="fill:#FFFFFF;" cx="130.8" cy="130.8" r="33.6"/>
</g>
<g>
</g>
<g>
</g>
<g>
</g>
<g>
</g>
<g>
</g>
<g>
</g>
<g>
</g>
<g>
</g>
<g>
</g>
<g>
</g>
<g>
</g>
<g>
</g>
<g>
</g>
<g>
</g>
<g>
</g>
</svg>
