<?xml version="1.0" encoding="iso-8859-1"?>
<!-- Generator: Adobe Illustrator 19.0.0, SVG Export Plug-In . SVG Version: 6.00 Build 0)  -->
<svg version="1.1" id="Layer_1" xmlns="http://www.w3.org/2000/svg" xmlns:xlink="http://www.w3.org/1999/xlink" x="0px" y="0px"
	 viewBox="0 0 508 508" style="enable-background:new 0 0 508 508;" xml:space="preserve">
<circle style="fill:#FD8469;" cx="254" cy="254" r="254"/>
<path style="fill:#324A5E;" d="M328.8,415.2h-196c-11.6,0-20.8-9.2-20.8-20.8V114c0-11.6,9.2-20.8,20.8-20.8h196
	c11.6,0,20.8,9.2,20.8,20.8v280C349.6,405.6,340.4,415.2,328.8,415.2z"/>
<rect x="129.6" y="132.8" style="fill:#E6E9EE;" width="202.4" height="228.4"/>
<g>
	<path style="fill:#2B3B4E;" d="M273.2,117.6h-64.4c-2.4,0-4.4-2-4.4-4.4l0,0c0-2.4,2-4.4,4.4-4.4h64.4c2.4,0,4.4,2,4.4,4.4l0,0
		C277.6,116,275.6,117.6,273.2,117.6z"/>
	<path style="fill:#2B3B4E;" d="M191.2,117.6h-2.8c-2.4,0-4.4-2-4.4-4.4l0,0c0-2.4,2-4.4,4.4-4.4h2.8c2.4,0,4.4,2,4.4,4.4l0,0
		C195.6,116,193.6,117.6,191.2,117.6z"/>
	<circle style="fill:#2B3B4E;" cx="230.8" cy="386.4" r="12.8"/>
</g>
<g>
	<circle style="fill:#FFFFFF;" cx="349.6" cy="241.6" r="86.8"/>
	<polygon style="fill:#FFFFFF;" points="318.8,311.2 263.2,328.8 282.8,280.4 	"/>
</g>
<g>
	<circle style="fill:#FFD05B;" cx="308" cy="241.6" r="13.6"/>
	<circle style="fill:#FFD05B;" cx="349.6" cy="241.6" r="13.6"/>
	<circle style="fill:#FFD05B;" cx="391.6" cy="241.6" r="13.6"/>
</g>
<g>
</g>
<g>
</g>
<g>
</g>
<g>
</g>
<g>
</g>
<g>
</g>
<g>
</g>
<g>
</g>
<g>
</g>
<g>
</g>
<g>
</g>
<g>
</g>
<g>
</g>
<g>
</g>
<g>
</g>
</svg>
