<?xml version="1.0" encoding="iso-8859-1"?>
<!-- Generator: Adobe Illustrator 19.0.0, SVG Export Plug-In . SVG Version: 6.00 Build 0)  -->
<svg version="1.1" id="Layer_1" xmlns="http://www.w3.org/2000/svg" xmlns:xlink="http://www.w3.org/1999/xlink" x="0px" y="0px"
	 viewBox="0 0 508 508" style="enable-background:new 0 0 508 508;" xml:space="preserve">
<circle style="fill:#90DFAA;" cx="254" cy="254" r="254"/>
<path style="fill:#2C9984;" d="M55.2,412c46.4,58.4,118.4,96,198.8,96s152.4-37.6,198.8-96H55.2z"/>
<rect x="200.4" y="338.8" style="fill:#FFFFFF;" width="106.8" height="49.2"/>
<rect x="200.4" y="338.8" style="fill:#E6E9EE;" width="106.8" height="33.2"/>
<path style="fill:#324A5E;" d="M399.6,109.6H108.4c-10.4,0-18.8,8.4-18.8,18.8v206.8c0,10.4,8.4,18.8,18.8,18.8h291.2
	c10.4,0,18.8-8.4,18.8-18.8V128.8C418.4,118,410,109.6,399.6,109.6z"/>
<rect x="105.2" y="125.6" style="fill:#FFFFFF;" width="297.2" height="160.4"/>
<rect x="105.2" y="125.6" style="fill:#54C0EB;" width="297.2" height="19.6"/>
<path style="fill:#FFFFFF;" d="M89.6,306.4v28.8c0,10.4,8.4,18.8,18.8,18.8h291.2c10.4,0,18.8-8.4,18.8-18.8v-28.8H89.6z"/>
<g>
	<path style="fill:#E6E9EE;" d="M326.8,388H181.2c-6.8,0-12.4,5.6-12.4,12.4l0,0c0,6.8,5.6,12.4,12.4,12.4h145.2
		c6.8,0,12.4-5.6,12.4-12.4l0,0C338.8,393.6,333.2,388,326.8,388z"/>
	<circle style="fill:#E6E9EE;" cx="254" cy="328.8" r="14"/>
</g>
<g>
	<rect x="120.4" y="159.2" style="fill:#84DBFF;" width="267.2" height="42.4"/>
	<rect x="120.4" y="217.2" style="fill:#84DBFF;" width="73.6" height="54.4"/>
	<rect x="217.2" y="217.2" style="fill:#84DBFF;" width="73.6" height="54.4"/>
	<rect x="314" y="217.2" style="fill:#84DBFF;" width="73.6" height="54.4"/>
</g>
<g>
</g>
<g>
</g>
<g>
</g>
<g>
</g>
<g>
</g>
<g>
</g>
<g>
</g>
<g>
</g>
<g>
</g>
<g>
</g>
<g>
</g>
<g>
</g>
<g>
</g>
<g>
</g>
<g>
</g>
</svg>
