<?xml version="1.0" encoding="iso-8859-1"?>
<!-- Generator: Adobe Illustrator 19.0.0, SVG Export Plug-In . SVG Version: 6.00 Build 0)  -->
<svg version="1.1" id="Layer_1" xmlns="http://www.w3.org/2000/svg" xmlns:xlink="http://www.w3.org/1999/xlink" x="0px" y="0px"
	 viewBox="0 0 508 508" style="enable-background:new 0 0 508 508;" xml:space="preserve">
<circle style="fill:#90DFAA;" cx="254" cy="254" r="254"/>
<polygon style="fill:#FFFFFF;" points="300,340.4 208,340.4 173.6,407.6 334.4,407.6 "/>
<polygon style="fill:#E6E9EE;" points="316.8,372.8 300,340.4 208,340.4 191.2,372.8 "/>
<path style="fill:#FFFFFF;" d="M405.6,351.2H102.4c-8.4,0-15.6-6.8-15.6-15.6v-214c0-8.4,6.8-15.6,15.6-15.6h302.8
	c8.4,0,15.6,6.8,15.6,15.6V336C420.8,344.4,414,351.2,405.6,351.2z"/>
<rect x="108" y="128" style="fill:#324A5E;" width="292" height="176.4"/>
<g>
	<path style="fill:#E6E9EE;" d="M336.8,418H171.2c-5.6,0-10.4-4.8-10.4-10.4l0,0c0-5.6,4.8-10.4,10.4-10.4h166
		c5.6,0,10.4,4.8,10.4,10.4l0,0C347.2,413.2,342.8,418,336.8,418z"/>
	<circle style="fill:#E6E9EE;" cx="254" cy="326" r="11.2"/>
</g>
<g>
	<rect x="251.2" y="163.6" style="fill:#FFFFFF;" width="5.2" height="56.8"/>
	<path style="fill:#FFFFFF;" d="M330.8,220.4h-5.2v-46.8c0-3.6-2.8-6.4-6.4-6.4H188.8c-3.6,0-6.4,2.8-6.4,6.4v46.8h-5.2v-46.8
		c0-6.4,5.2-11.6,11.6-11.6h130.4c6.4,0,11.6,5.2,11.6,11.6C330.8,173.6,330.8,220.4,330.8,220.4z"/>
	<path style="fill:#FFFFFF;" d="M207.6,264.8h-18.8c-3.6,0-6.4-2.8-6.4-6.4V220h-5.2v38.4c0,6.4,5.2,11.6,11.6,11.6h18.8
		C207.6,270,207.6,264.8,207.6,264.8z"/>
	<path style="fill:#FFFFFF;" d="M325.2,220.4v38.4c0,3.6-2.8,6.4-6.4,6.4H284v5.2h34.8c6.4,0,11.6-5.2,11.6-11.6v-38.4H325.2z"/>
</g>
<g>
	<path style="fill:#84DBFF;" d="M254,176.8L254,176.8c-6.4,0-11.6-5.2-11.6-11.6l0,0c0-6.4,5.2-11.6,11.6-11.6l0,0
		c6.4,0,11.6,5.2,11.6,11.6l0,0C265.6,171.2,260.4,176.8,254,176.8z"/>
	<path style="fill:#84DBFF;" d="M328,232.4L328,232.4c-6.4,0-11.6-5.2-11.6-11.6l0,0c0-6.4,5.2-11.6,11.6-11.6l0,0
		c6.4,0,11.6,5.2,11.6,11.6l0,0C340,227.2,334.4,232.4,328,232.4z"/>
	<path style="fill:#84DBFF;" d="M282,279.6L282,279.6c-6.4,0-11.6-5.2-11.6-11.6l0,0c0-6.4,5.2-11.6,11.6-11.6l0,0
		c6.4,0,11.6,5.2,11.6,11.6l0,0C294,274,288.8,279.6,282,279.6z"/>
	<path style="fill:#84DBFF;" d="M208,279.6L208,279.6c-6.4,0-11.6-5.2-11.6-11.6l0,0c0-6.4,5.2-11.6,11.6-11.6l0,0
		c6.4,0,11.6,5.2,11.6,11.6l0,0C220,274,214.8,279.6,208,279.6z"/>
	<path style="fill:#84DBFF;" d="M254,232.4L254,232.4c-6.4,0-11.6-5.2-11.6-11.6l0,0c0-6.4,5.2-11.6,11.6-11.6l0,0
		c6.4,0,11.6,5.2,11.6,11.6l0,0C265.6,227.2,260.4,232.4,254,232.4z"/>
	<path style="fill:#84DBFF;" d="M180,232.4L180,232.4c-6.4,0-11.6-5.2-11.6-11.6l0,0c0-6.4,5.2-11.6,11.6-11.6l0,0
		c6.4,0,11.6,5.2,11.6,11.6l0,0C191.6,227.2,186.4,232.4,180,232.4z"/>
</g>
<g>
</g>
<g>
</g>
<g>
</g>
<g>
</g>
<g>
</g>
<g>
</g>
<g>
</g>
<g>
</g>
<g>
</g>
<g>
</g>
<g>
</g>
<g>
</g>
<g>
</g>
<g>
</g>
<g>
</g>
</svg>
