<?xml version="1.0" encoding="iso-8859-1"?>
<!-- Generator: Adobe Illustrator 19.0.0, SVG Export Plug-In . SVG Version: 6.00 Build 0)  -->
<svg version="1.1" id="Layer_1" xmlns="http://www.w3.org/2000/svg" xmlns:xlink="http://www.w3.org/1999/xlink" x="0px" y="0px"
	 viewBox="0 0 508 508" style="enable-background:new 0 0 508 508;" xml:space="preserve">
<circle style="fill:#FD8469;" cx="254" cy="254" r="254"/>
<path style="fill:#F1543F;" d="M52.4,408.4C98.8,468.8,172,508,254,508s155.2-39.2,201.6-99.6H52.4z"/>
<path style="fill:#FFFFFF;" d="M269.2,338h-30.4c-27.2,0-49.2,22-49.2,49.2l0,0h128.8l0,0C318.4,360,296.4,338,269.2,338z"/>
<path style="fill:#E6E9EE;" d="M309.6,358.8C300.4,346,286,338,269.2,338h-30.4c-16.8,0-31.2,8.4-40.4,20.8H309.6z"/>
<path style="fill:#FFFFFF;" d="M414.8,350H93.2c-8.4,0-15.2-6.8-15.2-15.2v-196c0-8.4,6.8-15.2,15.2-15.2h321.6
	c8.4,0,15.2,6.8,15.2,15.2v196C430,343.2,423.2,350,414.8,350z"/>
<rect x="94" y="139.2" style="fill:#84DBFF;" width="320.4" height="171.2"/>
<path style="fill:#E6E9EE;" d="M326,387.2H182c-6,0-10.8,4.8-10.8,10.8l0,0c0,6,4.8,10.8,10.8,10.8h144c6,0,10.8-4.8,10.8-10.8l0,0
	C336.8,392,332,387.2,326,387.2z"/>
<path style="fill:#2B3B4E;" d="M347.6,188.8L250,278.4c-1.6,1.2-3.6,2-5.6,1.2l-79.2-30L94,303.2v-14l67.2-50.4
	c1.6-1.2,3.6-1.6,5.2-0.8l78.8,30l95.2-87.2c2.4-2,5.6-2,8,0.4C350,183.2,350,186.8,347.6,188.8z"/>
<g>
	<circle style="fill:#324A5E;" cx="164.4" cy="243.2" r="21.2"/>
	<circle style="fill:#324A5E;" cx="246.4" cy="274.4" r="21.2"/>
	<polygon style="fill:#324A5E;" points="348.8,214.8 359.6,168.4 312.8,178.8 	"/>
</g>
<g>
</g>
<g>
</g>
<g>
</g>
<g>
</g>
<g>
</g>
<g>
</g>
<g>
</g>
<g>
</g>
<g>
</g>
<g>
</g>
<g>
</g>
<g>
</g>
<g>
</g>
<g>
</g>
<g>
</g>
</svg>
