<?xml version="1.0" encoding="iso-8859-1"?>
<!-- Generator: Adobe Illustrator 19.0.0, SVG Export Plug-In . SVG Version: 6.00 Build 0)  -->
<svg version="1.1" id="Layer_1" xmlns="http://www.w3.org/2000/svg" xmlns:xlink="http://www.w3.org/1999/xlink" x="0px" y="0px"
	 viewBox="0 0 508 508" style="enable-background:new 0 0 508 508;" xml:space="preserve">
<circle style="fill:#FD8469;" cx="254" cy="254" r="254"/>
<path style="fill:#FFFFFF;" d="M376.8,88.8H131.2c-9.2,0-16.8,7.6-16.8,16.8v296.8c0,9.2,7.6,16.8,16.8,16.8h245.2
	c9.2,0,16.8-7.6,16.8-16.8V105.6C393.6,96.4,386,88.8,376.8,88.8z"/>
<path style="fill:#324A5E;" d="M376.8,88.8H131.2c-9.2,0-16.8,7.6-16.8,16.8v38h278.8v-38C393.6,96.4,386,88.8,376.8,88.8z"/>
<g>
	<circle style="fill:#FFFFFF;" cx="366.4" cy="116" r="10.8"/>
	<circle style="fill:#FFFFFF;" cx="330.4" cy="116" r="10.8"/>
	<circle style="fill:#FFFFFF;" cx="294.4" cy="116" r="10.8"/>
</g>
<rect x="146.8" y="168" style="fill:#84DBFF;" width="214" height="68.8"/>
<g>
	<rect x="146.8" y="255.6" style="fill:#E6E9EE;" width="214" height="11.6"/>
	<rect x="146.8" y="279.6" style="fill:#E6E9EE;" width="214" height="11.6"/>
	<rect x="146.8" y="304" style="fill:#E6E9EE;" width="214" height="11.6"/>
	<rect x="146.8" y="328" style="fill:#E6E9EE;" width="214" height="11.6"/>
	<rect x="146.8" y="352" style="fill:#E6E9EE;" width="214" height="11.6"/>
	<rect x="146.8" y="376.4" style="fill:#E6E9EE;" width="99.2" height="11.6"/>
</g>
<g>
</g>
<g>
</g>
<g>
</g>
<g>
</g>
<g>
</g>
<g>
</g>
<g>
</g>
<g>
</g>
<g>
</g>
<g>
</g>
<g>
</g>
<g>
</g>
<g>
</g>
<g>
</g>
<g>
</g>
</svg>
